#N canvas 1193 217 561 499 12;
#X obj 164 66 inlet;
#X obj 233 363 outlet;
#X floatatom 164 126 5 0 0 0 - - -;
#X obj 164 95 random 8;
#X obj 164 154 select 0 1 2 3 4 5 6 7;
#X floatatom 233 269 5 0 0 0 - - -;
#X obj 233 298 mtof;
#X floatatom 233 332 5 0 0 0 - - -;
#X msg 72 215 60;
#X msg 121 214 62;
#X msg 173 214 64;
#X msg 222 213 65;
#X msg 269 213 67;
#X msg 314 212 69;
#X msg 413 213 72;
#X text 100 215 C;
#X text 439 214 C;
#X text 339 212 A;
#X text 148 214 D;
#X text 390 213 B;
#X text 198 214 E;
#X text 248 214 F;
#X text 294 213 G;
#X msg 363 213 71;
#X text 308 111 C Major Note Selection;
#X connect 0 0 3 0;
#X connect 2 0 4 0;
#X connect 3 0 2 0;
#X connect 4 1 8 0;
#X connect 4 2 9 0;
#X connect 4 3 10 0;
#X connect 4 4 11 0;
#X connect 4 5 12 0;
#X connect 4 6 13 0;
#X connect 4 7 23 0;
#X connect 4 8 14 0;
#X connect 5 0 6 0;
#X connect 6 0 7 0;
#X connect 7 0 1 0;
#X connect 8 0 5 0;
#X connect 9 0 5 0;
#X connect 10 0 5 0;
#X connect 11 0 5 0;
#X connect 12 0 5 0;
#X connect 13 0 5 0;
#X connect 14 0 5 0;
#X connect 23 0 5 0;
