#N canvas 878 279 542 482 12;
#X obj 164 66 inlet;
#X obj 216 365 outlet;
#X floatatom 164 126 5 0 0 0 - - -;
#X floatatom 216 271 5 0 0 0 - - -;
#X obj 216 300 mtof;
#X floatatom 216 334 5 0 0 0 - - -;
#X msg 141 214 60;
#X msg 190 214 62;
#X msg 242 214 64;
#X msg 291 213 65;
#X msg 338 213 67;
#X text 302 64 F Major Note Selection;
#X obj 164 154 select 0 1 2 3 4;
#X msg 92 214 60;
#X text 120 214 B;
#X text 169 214 D;
#X text 217 214 E;
#X text 268 214 F;
#X text 317 214 G;
#X text 364 213 A;
#X obj 164 95 random 5;
#X connect 0 0 20 0;
#X connect 2 0 12 0;
#X connect 3 0 4 0;
#X connect 4 0 5 0;
#X connect 5 0 1 0;
#X connect 6 0 3 0;
#X connect 7 0 3 0;
#X connect 8 0 3 0;
#X connect 9 0 3 0;
#X connect 10 0 3 0;
#X connect 12 0 13 0;
#X connect 12 1 6 0;
#X connect 12 2 7 0;
#X connect 12 3 8 0;
#X connect 12 4 9 0;
#X connect 12 5 10 0;
#X connect 13 0 3 0;
#X connect 20 0 2 0;
