#N canvas 156 39 1436 892 12;
#X obj 9 31 tgl 15 0 empty empty empty 17 7 0 10 -262144 -1 -1 0 1
;
#X obj 9 58 send ON;
#X obj 777 30 receive ON;
#X obj 709 30 loadbang;
#X obj 777 58 sel 0;
#X obj 777 84 bng 15 250 50 0 empty empty empty 17 7 0 10 -262144 -1
-1;
#X msg 777 118 -1;
#X obj 823 92 receive wNote;
#X obj 501 33 r ON;
#X obj 414 160 r time;
#X obj 413 34 r ON;
#X obj 823 122 bng 20 250 50 0 empty empty empty 17 7 0 10 -262144
-1 -1;
#X obj 855 137 + 1;
#X floatatom 823 199 5 0 0 0 - - -;
#X obj 823 224 % 2;
#X obj 823 251 + 1;
#X obj 823 279 sel 1;
#X obj 823 311 bng 20 250 50 0 empty empty empty 17 7 0 10 -262144
-1 -1;
#X obj 823 350 tgl 15 0 empty empty empty 17 7 0 10 -262144 -1 -1 1
1;
#X obj 823 377 send Chord;
#X obj 735 224 receive ON;
#X obj 670 224 loadbang;
#X obj 735 253 sel 0;
#X obj 414 188 * 4;
#X obj 414 239 send wTime;
#X obj 413 115 send wNote;
#X obj 142 36 loadbang;
#X obj 217 36 loadbang;
#X floatatom 217 89 5 0 0 0 - - -;
#X msg 217 61 60;
#X msg 142 75 60000;
#X obj 188 147 /;
#X floatatom 188 177 5 0 0 0 - - -;
#X obj 188 107 bng 15 250 50 0 empty empty empty 17 7 0 10 -262144
-1 -1;
#X obj 188 213 send time;
#X text 177 8 BPM Clock;
#X text 7 9 On/OFF;
#X obj 501 115 send 4thNote;
#X text 740 3 Sequencer;
#X text 412 5 Clock Multiplication;
#X msg 28 503 130.81;
#X msg 98 503 87.31;
#X obj 28 383 r Chord;
#X obj 28 409 tgl 15 0 empty empty empty 17 7 0 10 -262144 -1 -1 1
1;
#X obj 28 434 sel 0;
#X text 93 480 C and F Note Freq;
#X obj 96 742 *~, f 6;
#X obj 135 533 r ON;
#X obj 257 457 r time;
#X obj 135 555 sel 1;
#X obj 257 483 * 2;
#X obj 314 516 r ON;
#X obj 314 546 sel 0;
#X obj 314 578 delay 5;
#X obj 135 645 line;
#X obj 257 538 - 100;
#X floatatom 257 515 5 0 0 0 - - -;
#X obj 225 564 delay;
#X msg 225 597 0 100;
#X msg 135 603 1 500;
#X text 26 358 Bass;
#X obj 444 423 r wNote;
#X obj 444 475 C_Scale;
#X obj 591 650 line;
#X obj 591 496 bng 20 250 50 0 empty empty empty 17 7 0 10 -262144
-1 -1;
#X obj 661 457 r wTime;
#X obj 734 457 r ON;
#X obj 734 503 sel 0;
#X obj 734 547 delay 5;
#X obj 661 502 - 500;
#X obj 661 532 delay;
#X msg 661 605 0 500;
#X msg 591 531 1 500;
#X floatatom 510 575 5 0 0 0 - - -;
#X obj 444 574 phasor~;
#X floatatom 444 515 5 0 0 0 - - -;
#X obj 83 794 dac~;
#X obj 444 452 bng 15 250 50 0 empty empty empty 17 7 0 10 -262144
-1 -1;
#X obj 510 548 * 1.001;
#X obj 510 601 phasor~;
#X obj 28 465 bng 15 250 50 0 empty empty empty 17 7 0 10 -262144 -1
-1;
#X obj 60 465 bng 15 250 50 0 empty empty empty 17 7 0 10 -262144 -1
-1;
#X obj 135 581 bng 15 250 50 0 empty empty empty 17 7 0 10 -262144
-1 -1;
#X floatatom 28 562 5 0 0 0 - - -;
#X floatatom 414 211 5 0 0 0 - - -;
#X msg 735 280 1;
#X obj 413 94 bng 15 250 50 0 empty empty empty 17 7 0 10 -262144 -1
-1;
#X obj 501 94 bng 15 250 50 0 empty empty empty 17 7 0 10 -262144 -1
-1;
#X text 858 222 Number of measures for the toggle;
#X obj 823 163 int 1;
#X obj 28 603 phasor~;
#X obj 28 646 lop~ 80;
#X obj 454 787 dac~;
#X obj 462 650 lop~ 150;
#X obj 461 724 *~ 0;
#X obj 462 676 hip~ 15;
#X obj 413 66 metro 1000;
#X floatatom 932 603 5 0 0 0 - - -;
#X obj 866 602 phasor~;
#X floatatom 866 543 5 0 0 0 - - -;
#X obj 866 480 bng 15 250 50 0 empty empty empty 17 7 0 10 -262144
-1 -1;
#X obj 932 576 * 1.001;
#X obj 932 629 phasor~;
#X obj 884 678 lop~ 150;
#X obj 884 704 hip~ 15;
#X obj 866 451 r 4thNote;
#X obj 866 503 F_Scale;
#X obj 878 811 dac~;
#X obj 885 748 *~ 0;
#X obj 1053 674 line;
#X obj 1053 520 bng 20 250 50 0 empty empty empty 17 7 0 10 -262144
-1 -1;
#X obj 1123 481 r wTime;
#X obj 1191 481 r ON;
#X obj 1191 527 sel 0;
#X obj 1191 571 delay 5;
#X obj 1123 526 - 500;
#X obj 1123 556 delay;
#X msg 1123 629 0 500;
#X msg 1053 555 1 500;
#X obj 501 63 metro 4000;
#X text 1112 428 Envelope;
#X text 632 413 Envelope;
#X text 441 396 Ambient Pitches;
#X text 381 475 CMajor;
#X text 816 504 FMajor;
#X text 572 463 Attack;
#X text 1037 496 Attack;
#X text 662 627 Decay and Sustain;
#X text 1124 651 Decay and Sustain;
#X connect 0 0 1 0;
#X connect 2 0 4 0;
#X connect 3 0 5 0;
#X connect 4 0 5 0;
#X connect 5 0 6 0;
#X connect 6 0 89 0;
#X connect 7 0 11 0;
#X connect 8 0 119 0;
#X connect 9 0 23 0;
#X connect 10 0 96 0;
#X connect 11 0 89 0;
#X connect 12 0 89 1;
#X connect 13 0 14 0;
#X connect 14 0 15 0;
#X connect 15 0 16 0;
#X connect 16 0 17 0;
#X connect 17 0 18 0;
#X connect 18 0 19 0;
#X connect 20 0 22 0;
#X connect 21 0 85 0;
#X connect 22 0 85 0;
#X connect 23 0 84 0;
#X connect 26 0 30 0;
#X connect 27 0 29 0;
#X connect 28 0 33 0;
#X connect 28 0 31 1;
#X connect 29 0 28 0;
#X connect 30 0 31 0;
#X connect 31 0 32 0;
#X connect 32 0 34 0;
#X connect 33 0 31 0;
#X connect 40 0 83 0;
#X connect 41 0 83 0;
#X connect 42 0 43 0;
#X connect 43 0 44 0;
#X connect 44 0 80 0;
#X connect 44 1 81 0;
#X connect 46 0 76 0;
#X connect 46 0 76 1;
#X connect 47 0 49 0;
#X connect 48 0 50 0;
#X connect 49 0 82 0;
#X connect 50 0 56 0;
#X connect 51 0 52 0;
#X connect 52 0 53 0;
#X connect 53 0 58 0;
#X connect 54 0 46 1;
#X connect 55 0 57 1;
#X connect 56 0 55 0;
#X connect 57 0 58 0;
#X connect 58 0 54 0;
#X connect 59 0 54 0;
#X connect 61 0 64 0;
#X connect 61 0 77 0;
#X connect 62 0 75 0;
#X connect 63 0 94 1;
#X connect 64 0 72 0;
#X connect 64 0 70 0;
#X connect 65 0 69 0;
#X connect 66 0 67 0;
#X connect 67 0 68 0;
#X connect 68 0 71 0;
#X connect 69 0 70 0;
#X connect 70 0 71 0;
#X connect 71 0 63 0;
#X connect 72 0 63 0;
#X connect 73 0 79 0;
#X connect 74 0 93 0;
#X connect 75 0 74 0;
#X connect 75 0 78 0;
#X connect 77 0 62 0;
#X connect 78 0 73 0;
#X connect 79 0 93 0;
#X connect 80 0 40 0;
#X connect 81 0 41 0;
#X connect 82 0 59 0;
#X connect 83 0 90 0;
#X connect 84 0 24 0;
#X connect 85 0 18 0;
#X connect 86 0 25 0;
#X connect 87 0 37 0;
#X connect 89 0 12 0;
#X connect 89 0 13 0;
#X connect 90 0 91 0;
#X connect 91 0 46 0;
#X connect 93 0 95 0;
#X connect 94 0 92 0;
#X connect 94 0 92 1;
#X connect 95 0 94 0;
#X connect 96 0 86 0;
#X connect 97 0 102 0;
#X connect 98 0 103 0;
#X connect 99 0 98 0;
#X connect 99 0 101 0;
#X connect 100 0 106 0;
#X connect 101 0 97 0;
#X connect 102 0 103 0;
#X connect 103 0 104 0;
#X connect 104 0 108 0;
#X connect 105 0 100 0;
#X connect 105 0 110 0;
#X connect 106 0 99 0;
#X connect 108 0 107 0;
#X connect 108 0 107 1;
#X connect 109 0 108 1;
#X connect 110 0 118 0;
#X connect 110 0 116 0;
#X connect 111 0 115 0;
#X connect 112 0 113 0;
#X connect 113 0 114 0;
#X connect 114 0 117 0;
#X connect 115 0 116 0;
#X connect 116 0 117 0;
#X connect 117 0 109 0;
#X connect 118 0 109 0;
#X connect 119 0 87 0;
