#N canvas -8 -8 1920 1037 12;
#X obj 16 12 tgl 15 0 empty empty empty 17 7 0 10 -262144 -1 -1 1 1
;
#X msg 16 37 \; pd dsp \$1;
#X obj 145 328 noise~;
#X obj 143 475 *~;
#X obj 134 520 dac~;
#X obj 191 418 vline~;
#X obj 709 25 r oscstep;
#X obj 708 59 bng 15 250 50 0 empty empty empty 17 7 0 10 -262144 -1
-1;
#X msg 191 384 0.1 100 \, 0 100 25;
#X obj 424 318 noise~;
#X obj 425 465 *~;
#X obj 416 510 dac~;
#X obj 465 416 vline~;
#X obj 679 316 noise~;
#X obj 679 463 *~;
#X obj 670 508 dac~;
#X obj 727 413 vline~;
#X obj 980 313 noise~;
#X obj 978 460 *~;
#X obj 969 505 dac~;
#X obj 1020 417 vline~;
#X obj 708 215 hradio 15 1 0 5 empty empty empty 0 -8 0 10 -262144
-1 -1 0;
#X obj 706 142 f;
#X obj 746 143 + 1;
#X obj 702 245 select 0 1 2 3;
#X msg 465 377 0.05 100 \, 0 50 50;
#X obj 1267 311 noise~;
#X obj 1266 458 *~;
#X obj 1257 503 dac~;
#X obj 1308 415 vline~;
#X obj 708 176 mod 5;
#X msg 727 373 0.075 50 \, 0 100 50;
#X msg 1021 377 0.05 75 \, 0 100 75;
#X msg 1308 376 0.075 100 \, 0 50 75;
#X obj 1180 381 lop~ 1;
#X obj 887 380 lop~ 1;
#X obj 340 388 lop~ 1;
#X obj 611 376 lop~ 1;
#X obj 77 397 lop~ 1;
#X obj 709 98 metro 350;
#X connect 0 0 1 0;
#X connect 2 0 3 0;
#X connect 2 0 38 0;
#X connect 3 0 4 0;
#X connect 3 0 4 1;
#X connect 5 0 3 1;
#X connect 6 0 7 0;
#X connect 7 0 39 0;
#X connect 8 0 5 0;
#X connect 9 0 10 0;
#X connect 9 0 36 0;
#X connect 10 0 11 0;
#X connect 10 0 11 1;
#X connect 12 0 10 1;
#X connect 13 0 14 0;
#X connect 13 0 37 0;
#X connect 14 0 15 0;
#X connect 14 0 15 1;
#X connect 16 0 14 1;
#X connect 17 0 18 0;
#X connect 17 0 35 0;
#X connect 18 0 19 0;
#X connect 18 0 19 1;
#X connect 20 0 18 1;
#X connect 21 0 24 0;
#X connect 22 0 23 0;
#X connect 22 0 30 0;
#X connect 23 0 22 1;
#X connect 24 0 8 0;
#X connect 24 1 25 0;
#X connect 24 2 31 0;
#X connect 24 3 32 0;
#X connect 24 4 33 0;
#X connect 25 0 12 0;
#X connect 26 0 27 0;
#X connect 26 0 34 0;
#X connect 27 0 28 0;
#X connect 27 0 28 1;
#X connect 29 0 27 1;
#X connect 30 0 21 0;
#X connect 31 0 16 0;
#X connect 32 0 20 0;
#X connect 33 0 29 0;
#X connect 34 0 27 0;
#X connect 35 0 18 0;
#X connect 36 0 10 0;
#X connect 37 0 14 0;
#X connect 38 0 3 0;
#X connect 39 0 22 0;
