#N canvas 947 384 1920 997 10;
#X text 159 299 creation arguments are OSC address;
#X text 161 260 set message to change OSC address;
#X text 152 85 1 Set IP Address : network address;
#X text 152 105 2 Set Ports (sending and listening);
#X text 152 124 3 Set OSC Addresses (routing osc data;
#X text 154 59 Key Settings;
#X floatatom 26 229 5 0 0 0 - - -;
#X obj 456 211 select 0 1 2 3 4 5 6 7 8;
#X floatatom 494 457 5 0 0 0 - - -;
#X obj 494 611 *~;
#X obj 493 426 mtof;
#X obj 493 376 + 0;
#X obj 577 499 vline~;
#X floatatom 771 312 5 0 0 0 - - -;
#X obj 771 259 loadbang;
#X msg 451 282 0;
#X floatatom 456 147 5 0 0 0 - - -;
#N canvas 372 91 1031 750 oscReceive 0;
#X obj 55 184 netreceive -u -b;
#X msg 78 143 listen 0;
#X text 152 143 stop listening;
#X text 64 58 packets from network;
#X text 173 177 UDP packets \, binary output, f 13;
#X obj 45 314 print;
#X obj 45 272 oscparse;
#X text 150 114 listen on port 8000;
#X obj 177 269 oscparse;
#X obj 177 293 list trim;
#X floatatom 140 380 5 0 0 0 - - -;
#X text 241 267 Parse the OSC message;
#X obj 177 319 route unity;
#X obj 139 357 route trigger;
#X obj 140 407 s osctrig;
#X msg 66 115 listen 8000;
#X obj 66 84 loadbang;
#X floatatom 244 382 5 0 0 0 - - -;
#X obj 243 359 route tempo;
#X obj 244 409 s osctempo;
#X floatatom 339 382 5 0 0 0 - - -;
#X obj 338 359 route playseq;
#X obj 339 409 s oscplayseq;
#X floatatom 437 382 5 0 0 0 - - -;
#X obj 436 359 route colwall;
#X obj 437 409 s oscwall;
#X floatatom 537 381 5 0 0 0 - - -;
#X obj 537 408 s oscdone;
#X obj 536 358 route done;
#X obj 630 358 route tree;
#X obj 714 356 route rock;
#X obj 714 408 s oscrock;
#X obj 630 408 s osctree;
#X floatatom 632 383 5 0 0 0 - - -;
#X floatatom 714 384 5 0 0 0 - - -;
#X floatatom 803 382 5 0 0 0 - - -;
#X obj 803 355 route wind;
#X obj 803 407 s oscwind;
#X floatatom 881 382 5 0 0 0 - - -;
#X obj 881 355 route windstop;
#X obj 881 407 s oscwindstop;
#X connect 0 0 6 0;
#X connect 0 0 8 0;
#X connect 1 0 0 0;
#X connect 6 0 5 0;
#X connect 8 0 9 0;
#X connect 9 0 12 0;
#X connect 10 0 14 0;
#X connect 12 0 13 0;
#X connect 12 0 18 0;
#X connect 12 0 21 0;
#X connect 12 0 24 0;
#X connect 12 0 28 0;
#X connect 12 0 29 0;
#X connect 12 0 30 0;
#X connect 12 0 36 0;
#X connect 12 0 39 0;
#X connect 13 0 10 0;
#X connect 15 0 0 0;
#X connect 16 0 15 0;
#X connect 17 0 19 0;
#X connect 18 0 17 0;
#X connect 20 0 22 0;
#X connect 21 0 20 0;
#X connect 23 0 25 0;
#X connect 24 0 23 0;
#X connect 26 0 27 0;
#X connect 28 0 26 0;
#X connect 29 0 33 0;
#X connect 30 0 34 0;
#X connect 33 0 32 0;
#X connect 34 0 31 0;
#X connect 35 0 37 0;
#X connect 36 0 35 0;
#X connect 38 0 40 0;
#X connect 39 0 38 0;
#X restore 23 190 pd oscReceive;
#X obj 24 102 tgl 15 0 empty empty empty 17 7 0 10 -262144 -1 -1 0
1;
#X msg 24 136 \; pd dsp \$1;
#X msg 490 282 2;
#X msg 531 282 4;
#X msg 573 282 5;
#X msg 610 283 7;
#X msg 651 283 9;
#X msg 693 283 11;
#X msg 727 283 12;
#X obj 456 114 r osctrig;
#X obj 26 300 oscformat PD message;
#X msg 58 261 set PD message;
#N canvas 1184 211 450 252 oscSend 0;
#X msg 158 207 disconnect;
#X obj 61 253 netsend -u -b;
#X obj 59 55 list prepend send;
#X obj 59 80 list trim;
#X msg 150 175 connect 127.0.0.1 8001;
#X obj 59 29 r oscOut;
#X text 301 163 send to port 8001;
#X msg 147 148 connect localhost 8001;
#X obj 147 108 loadbang;
#X connect 0 0 1 0;
#X connect 2 0 3 0;
#X connect 3 0 1 0;
#X connect 4 0 1 0;
#X connect 5 0 2 0;
#X connect 7 0 1 0;
#X connect 8 0 7 0;
#X restore 23 166 pd oscSend;
#X obj 26 335 s oscOut;
#X obj 1400 849 *~;
#X obj 1439 576 mtof;
#X obj 1439 285 tgl 15 0 empty empty empty 17 7 0 10 -262144 -1 -1
0 1;
#X floatatom 1532 291 5 0 0 0 - - -;
#X floatatom 1439 605 5 0 0 0 - - -;
#X obj 1454 720 +~;
#X obj 1583 258 r osctempo;
#X obj 1532 228 loadbang;
#X obj 1439 227 r oscplayseq;
#X obj 463 537 osc~;
#X obj 501 536 osc~;
#X msg 771 286 60;
#X obj 503 509 * 1.5;
#X msg 577 447 0.85 100 \, 0 500 500;
#X text 895 86 Trigger noise burst when running into a wall;
#X obj 1439 669 osc~;
#X text 1391 160 Sequence playback: tempo increases as more cubes get
collected by the player.;
#X obj 1482 669 osc~;
#X obj 1482 632 * 0.5;
#X obj 1700 596 vline~;
#X msg 1700 451 0.3 50 \, 0.1 80 55;
#X obj 1439 318 metro 3500;
#X obj 1454 429 mod 12;
#X floatatom 1439 407 5 0 0 0 - - -;
#X obj 1454 455 select 0 2 4 7 9;
#X obj 1439 546 + 0;
#X obj 1439 385 + 48;
#X obj 1439 363 random 25;
#X floatatom 1547 479 5 0 0 0 - - -;
#X obj 1547 521 select 0 2 4 7 9;
#X obj 1547 499 - 1;
#X msg 1580 556 -1;
#X msg 1640 579 -2;
#X msg 1489 498 0;
#X msg 1532 259 400;
#X text 1381 80 Select 0 2 7 9 attempt to follow the notes on a keyboard.
Where the white notes are in the 0th \, 2th and so on positions. repeating
the process again is to make sure no other type of notes are picked.
I noticed that sometimes with mod 12 it may choose a 5 every so often.
;
#X text 15 77 Toggle DSP;
#X obj 39 510 dac~;
#X obj 38 433 catch~ $output;
#X floatatom 84 512 5 0 0 0 - - -;
#X text 17 407 Master Volume Output;
#X obj 494 653 throw~ $output;
#X obj 1500 948 throw~ $output;
#X obj 921 202 line~;
#X obj 921 226 pow~ 4;
#X obj 921 262 *~;
#X obj 1008 171 noise~;
#X obj 1009 206 hip~ 3000;
#X obj 1009 246 bp~ 5000 2;
#X msg 921 178 1 \, 0 200;
#X text 1008 149 Snare Drum;
#X text 1083 246 Filters;
#X obj 921 156 bng 15 250 50 0 empty empty empty 17 7 0 10 -262144
-1 -1;
#X obj 921 124 r oscwall;
#X obj 921 509 throw~ $output;
#X obj 154 381 vsl 15 128 1 100 0 0 empty empty empty 0 -9 0 10 -262144
-1 -1 0 1;
#X obj 1012 313 vsl 15 128 1 100 0 0 empty empty empty 0 -9 0 10 -262144
-1 -1 0 1;
#X obj 1658 756 vsl 15 128 1 100 0 0 empty empty empty 0 -9 0 10 -262144
-1 -1 0 1;
#X floatatom 943 444 5 0 0 0 - - -;
#X floatatom 1557 887 5 0 0 0 - - -;
#X obj 38 467 /~ 5;
#X obj 922 479 /~ 1;
#X obj 1499 902 /~ 1;
#X text 179 390 Volume Control Higher = Quieter;
#X text 1009 296 Volume Control Higher = Quieter;
#X text 1651 732 Volume Control Higher = Quieter;
#X floatatom 445 1710 5 0 0 0 - - -;
#X obj 445 1864 *~;
#X obj 444 1679 mtof;
#X obj 442 1618 + 0;
#X obj 560 1770 vline~;
#X floatatom 560 1674 5 0 0 0 - - -;
#X obj 560 1621 loadbang;
#X obj 446 1768 osc~;
#X obj 645 1045 metro 4000;
#X obj 524 854 tgl 15 0 empty empty empty 17 7 0 10 -262144 -1 -1 0
1;
#X floatatom 741 1002 5 0 0 0 - - -;
#X obj 659 1083 f;
#X obj 702 1085 + 1;
#X obj 856 871 vsl 15 128 50 500 0 0 empty empty empty 0 -9 0 10 -262144
-1 -1 0 1;
#X floatatom 328 1720 5 0 0 0 - - -;
#X msg 560 1648 48;
#X msg 1747 1414 12;
#X msg 1635 1416 11;
#X msg 1497 1416 9;
#X msg 1567 1413 10;
#X msg 1460 1379 -9;
#X msg 1530 1380 -8;
#X msg 1610 1380 -7;
#X msg 1681 1374 -6;
#X msg 560 1717 0.5 100 \, 0 500 500;
#X obj 472 981 loadbang;
#X msg 536 1020 0;
#X msg 27 1332 -5;
#X msg 66 1332 -3;
#X msg 107 1332 -1;
#X msg 149 1332 1;
#X floatatom 13 1387 5 0 0 0 - - -;
#X floatatom 63 1387 5 0 0 0 - - -;
#X floatatom 110 1387 5 0 0 0 - - -;
#X floatatom 159 1385 5 0 0 0 - - -;
#X floatatom 223 1385 5 0 0 0 - - -;
#X floatatom 273 1385 5 0 0 0 - - -;
#X floatatom 320 1385 5 0 0 0 - - -;
#X floatatom 369 1383 5 0 0 0 - - -;
#X floatatom 428 1384 5 0 0 0 - - -;
#X floatatom 478 1384 5 0 0 0 - - -;
#X floatatom 525 1384 5 0 0 0 - - -;
#X floatatom 574 1382 5 0 0 0 - - -;
#X msg 237 1330 -4;
#X msg 317 1330 0;
#X msg 359 1330 2;
#X msg 276 1330 -2;
#X msg 442 1329 -3;
#X msg 481 1329 -1;
#X msg 522 1329 1;
#X msg 564 1329 3;
#X floatatom 622 1386 5 0 0 0 - - -;
#X floatatom 672 1386 5 0 0 0 - - -;
#X floatatom 719 1386 5 0 0 0 - - -;
#X floatatom 768 1384 5 0 0 0 - - -;
#X msg 636 1331 -2;
#X msg 675 1331 0;
#X msg 716 1331 2;
#X msg 758 1331 4;
#X msg 586 1021 216.5;
#X obj 659 966 f;
#X obj 662 915 metro 500;
#X floatatom 822 1388 5 0 0 0 - - -;
#X floatatom 872 1388 5 0 0 0 - - -;
#X floatatom 919 1388 5 0 0 0 - - -;
#X floatatom 968 1386 5 0 0 0 - - -;
#X floatatom 1018 1387 5 0 0 0 - - -;
#X floatatom 1068 1387 5 0 0 0 - - -;
#X floatatom 1115 1387 5 0 0 0 - - -;
#X floatatom 1164 1385 5 0 0 0 - - -;
#X floatatom 1214 1387 5 0 0 0 - - -;
#X floatatom 1264 1387 5 0 0 0 - - -;
#X floatatom 1311 1387 5 0 0 0 - - -;
#X floatatom 1360 1385 5 0 0 0 - - -;
#X msg 836 1333 -1;
#X msg 875 1333 1;
#X msg 916 1333 3;
#X msg 958 1333 5;
#X msg 1032 1332 0;
#X msg 1071 1332 2;
#X msg 1112 1332 4;
#X msg 1154 1332 6;
#X msg 1228 1332 1;
#X msg 1267 1332 3;
#X msg 1308 1332 5;
#X msg 1350 1332 7;
#X obj 526 1141 select 0 1 2 3 4 5 6 7 8 9 10 11 12 13 14 15 16 17
18 19 20 21 22 23 24 25 26 27 28 29 30 31 32 33 34 35 36 37 38 39 40
41 42 43;
#X obj 702 968 - 4;
#X obj 1429 1167 select 44 45 46 47 48 49 50 51 52 53 54 55 56 57 58
59 60 61 62 63;
#X text 317 981 Resets settings on start;
#X text 418 854 Click to Start!;
#X text 855 851 Manual Tempo Control;
#X text 662 891 Speeds up tempo as sound plays;
#X text 187 1720 MIDI Debug Output;
#X text 624 1655 48 should be note C4;
#X text 1561 1124 Ending Section;
#X text 625 1113 Repeating Section;
#X obj 753 1770 vsl 15 128 0.5 3 0 0 empty empty empty 0 -9 0 10 -262144
-1 -1 0 1;
#X floatatom 543 1901 5 0 0 0 - - -;
#X obj 444 1916 /~ 1;
#X text 773 1769 Volume Control;
#X msg 754 1941 1000;
#X msg 752 1912 1;
#X text 790 1911 Click to reset to default volume;
#X text 795 1941 Click to mute;
#X obj 444 1964 throw~ $output;
#X obj 608 837 r oscdone;
#X text 151 142 4 Master Volume Output Slider;
#X text 452 87 Trigger when picking up rotating cube...;
#X text 519 782 Plays when all the squares are picked up our "Success"
Audio Feedback;
#X obj 1202 464 select 0 1 2 3 4 5 6 7 8;
#X floatatom 1176 630 5 0 0 0 - - -;
#X obj 1238 551 + 0;
#X obj 1296 694 vline~;
#X floatatom 1340 614 5 0 0 0 - - -;
#X obj 1340 561 loadbang;
#X obj 1136 708 osc~;
#X obj 1211 711 osc~;
#X obj 1211 671 * 1.5;
#X obj 1260 427 hradio 15 1 0 8 empty empty empty 0 -8 0 10 -262144
-1 -1 1;
#X obj 1325 359 f;
#X obj 1369 359 + 1;
#X obj 1325 394 mod 8;
#X msg 1296 643 0.2 4000 \, 0 4000 500;
#X obj 1176 592 mtof;
#X msg 1340 588 60;
#X msg 1123 502 -5;
#X msg 1204 504 -3;
#X obj 1325 322 metro 2500;
#X msg 1286 504 -5;
#X msg 1160 502 -2;
#X msg 1324 502 -1;
#X msg 1401 505 -1;
#X msg 1363 504 -2;
#X msg 1248 504 -2;
#X text 11 11 GROUP E Lane Albrecht Pierce Sullivan Jalen Pastor Sam
Vik;
#X obj 2001 470 throw~ $output;
#X obj 2092 274 vsl 15 128 1 100 0 0 empty empty empty 0 -9 0 10 -262144
-1 -1 0 1;
#X floatatom 2023 405 5 0 0 0 - - -;
#X obj 2002 440 /~ 1;
#X text 2089 257 Volume Control Higher = Quieter;
#X obj 2021 948 throw~ $output;
#X obj 2110 759 vsl 15 128 1 100 0 0 empty empty empty 0 -9 0 10 -262144
-1 -1 0 1;
#X floatatom 2041 890 5 0 0 0 - - -;
#X text 2091 742 Volume Control Higher = Quieter;
#X obj 2020 918 /~ 1;
#X msg 2020 648 127;
#N canvas 51 142 671 640 akick3 0;
#X obj 146 333 osc~;
#X obj 147 300 vline~;
#X msg 147 260 \$1 \, \$2 \$3;
#X obj 147 228 pack f f f;
#X obj 110 116 nbx 3 14 10 999 0 1 empty empty t -8 8 0 10 -262144
-1 -1 323 256;
#X obj 158 116 nbx 3 14 10 999 0 1 empty empty b -8 8 0 10 -262144
-1 -1 23 256;
#X obj 206 116 nbx 3 14 1 500 0 1 empty empty d -8 8 0 10 -262144 -1
-1 39 256;
#X obj 113 184 float;
#X obj 109 389 *~;
#X obj 83 349 *~;
#X obj 78 315 vline~;
#X obj 55 263 pack f f;
#X obj 113 137 hsl 128 8 0 1 0 1 empty empty d -10 5 0 10 -262144 -1
-1 6400 1;
#X obj 40 166 t f f;
#X obj 44 192 *;
#X obj 43 220 * 2000;
#X obj 30 8 inlet;
#X obj 108 431 outlet~;
#X obj 4 38 moses 0.0001;
#X obj 251 239 spigot 1;
#X obj 38 82 t f b b;
#X msg 276 209 0;
#X obj 287 179 delay;
#X msg 310 209 1;
#X msg 52 289 \$1 0.5 \, 0 \$2 1;
#X msg 244 270 0.25;
#X obj 48 59 / 128;
#X connect 0 0 8 1;
#X connect 1 0 0 0;
#X connect 2 0 1 0;
#X connect 3 0 2 0;
#X connect 4 0 7 1;
#X connect 5 0 3 1;
#X connect 6 0 3 2;
#X connect 7 0 3 0;
#X connect 8 0 17 0;
#X connect 9 0 8 0;
#X connect 10 0 9 1;
#X connect 10 0 9 0;
#X connect 11 0 24 0;
#X connect 12 0 13 0;
#X connect 13 0 14 0;
#X connect 13 1 14 1;
#X connect 14 0 15 0;
#X connect 15 0 11 1;
#X connect 15 0 22 1;
#X connect 16 0 18 0;
#X connect 18 1 26 0;
#X connect 19 0 25 0;
#X connect 20 0 11 0;
#X connect 20 1 7 0;
#X connect 20 1 21 0;
#X connect 20 1 22 0;
#X connect 20 2 19 0;
#X connect 21 0 19 1;
#X connect 22 0 23 0;
#X connect 23 0 19 1;
#X connect 24 0 10 0;
#X connect 25 0 0 1;
#X connect 26 0 20 0;
#X coords 0 -1 1 1 150 50 1 100 100;
#X restore 2020 686 pd akick3;
#X obj 2062 648 notein;
#X text 2011 591 Trigger noise burst when picking up a tree;
#X text 1980 95 Trigger noise burst when picking up a rock;
#X obj 2001 134 r oscrock;
#X obj 2020 608 r osctree;
#X msg 2001 166 127;
#N canvas 51 142 671 640 akick3 0;
#X obj 146 333 osc~;
#X obj 147 300 vline~;
#X msg 147 260 \$1 \, \$2 \$3;
#X obj 147 228 pack f f f;
#X obj 110 116 nbx 3 14 10 999 0 1 empty empty t -8 8 0 10 -262144
-1 -1 307 256;
#X obj 158 116 nbx 3 14 10 999 0 1 empty empty b -8 8 0 10 -262144
-1 -1 55 256;
#X obj 206 116 nbx 3 14 1 500 0 1 empty empty d -8 8 0 10 -262144 -1
-1 23 256;
#X obj 113 184 float;
#X obj 109 389 *~;
#X obj 83 349 *~;
#X obj 78 315 vline~;
#X obj 55 263 pack f f;
#X obj 113 137 hsl 128 8 0 1 0 1 empty empty d -10 5 0 10 -262144 -1
-1 10300 1;
#X obj 40 166 t f f;
#X obj 44 192 *;
#X obj 43 220 * 2000;
#X obj 30 8 inlet;
#X obj 108 431 outlet~;
#X obj 4 38 moses 0.0001;
#X obj 251 239 spigot 1;
#X obj 38 82 t f b b;
#X msg 276 209 0;
#X obj 287 179 delay;
#X msg 310 209 1;
#X msg 52 289 \$1 0.5 \, 0 \$2 1;
#X msg 244 270 0.25;
#X obj 48 59 / 128;
#X connect 0 0 8 1;
#X connect 1 0 0 0;
#X connect 2 0 1 0;
#X connect 3 0 2 0;
#X connect 4 0 7 1;
#X connect 5 0 3 1;
#X connect 6 0 3 2;
#X connect 7 0 3 0;
#X connect 8 0 17 0;
#X connect 9 0 8 0;
#X connect 10 0 9 1;
#X connect 10 0 9 0;
#X connect 11 0 24 0;
#X connect 12 0 13 0;
#X connect 13 0 14 0;
#X connect 13 1 14 1;
#X connect 14 0 15 0;
#X connect 15 0 11 1;
#X connect 15 0 22 1;
#X connect 16 0 18 0;
#X connect 18 1 26 0;
#X connect 19 0 25 0;
#X connect 20 0 11 0;
#X connect 20 1 7 0;
#X connect 20 1 21 0;
#X connect 20 1 22 0;
#X connect 20 2 19 0;
#X connect 21 0 19 1;
#X connect 22 0 23 0;
#X connect 23 0 19 1;
#X connect 24 0 10 0;
#X connect 25 0 0 1;
#X connect 26 0 20 0;
#X coords 0 -1 1 1 150 50 1 100 100;
#X restore 2001 204 pd akick3;
#X obj 2043 166 notein;
#X obj 78 2291 dac~;
#N canvas 0 50 1012 675 windspeed 0;
#X obj 62 28 osc~ 0.1;
#X obj 64 73 +~ 1;
#X obj 68 109 *~ 0.25;
#N canvas 1204 299 1001 749 gust 0;
#X obj 82 56 noise~;
#X obj 83 86 lop~ 0.5;
#X obj 83 123 lop~ 0.5;
#X obj 84 158 hip~ 0;
#X obj 85 194 *~ 50;
#X obj 88 234 *~;
#X obj 88 271 outlet~;
#X obj 175 58 inlet~;
#X obj 176 87 +~ 0.5;
#X obj 176 124 *~;
#X obj 177 159 -~ 0.125;
#X connect 0 0 1 0;
#X connect 1 0 2 0;
#X connect 2 0 3 0;
#X connect 3 0 4 0;
#X connect 4 0 5 0;
#X connect 5 0 6 0;
#X connect 7 0 8 0;
#X connect 8 0 9 0;
#X connect 9 0 10 0;
#X connect 10 0 5 1;
#X restore 132 146 pd gust;
#N canvas 816 619 1003 849 squall 0;
#X obj 86 36 inlet~;
#X obj 83 70 max~ 0.4;
#X obj 92 147 *~ 8;
#X obj 89 107 -~ 0.4;
#X obj 93 184 *~;
#X obj 182 64 noise~;
#X obj 193 101 lop~ 3;
#X obj 192 140 lop~ 3;
#X obj 187 178 hip~ 0;
#X obj 180 217 *~ 20;
#X obj 138 261 *~;
#X obj 139 301 outlet~;
#X connect 0 0 1 0;
#X connect 1 0 3 0;
#X connect 2 0 4 0;
#X connect 3 0 2 0;
#X connect 4 0 10 0;
#X connect 5 0 6 0;
#X connect 6 0 7 0;
#X connect 7 0 8 0;
#X connect 8 0 9 0;
#X connect 9 0 10 1;
#X connect 10 0 11 0;
#X restore 213 148 pd squall;
#X obj 131 196 +~;
#X obj 68 224 +~;
#X obj 71 258 clip~ 0 1;
#X obj 72 302 outlet~;
#X connect 0 0 1 0;
#X connect 1 0 2 0;
#X connect 2 0 6 0;
#X connect 2 0 3 0;
#X connect 2 0 4 0;
#X connect 3 0 5 0;
#X connect 4 0 5 1;
#X connect 5 0 6 1;
#X connect 6 0 7 0;
#X connect 7 0 8 0;
#X restore 96 2380 pd windspeed;
#X obj 98 2413 delwrite~ a 3000;
#N canvas 0 50 1604 756 fcpan 0;
#X obj 156 54 inlet~;
#X obj 322 53 sig~ \$1;
#X obj 324 89 *~ 0.25;
#X obj 324 122 -~ 0.25;
#X obj 327 157 cos~;
#X obj 263 243 *~;
#X obj 265 276 outlet~ r;
#X obj 164 279 outlet~ l;
#X obj 162 246 *~;
#X obj 189 162 -~ 0.25;
#X obj 179 205 cos~;
#X connect 0 0 8 0;
#X connect 0 0 5 0;
#X connect 1 0 2 0;
#X connect 2 0 3 0;
#X connect 3 0 4 0;
#X connect 3 0 9 0;
#X connect 4 0 5 1;
#X connect 5 0 6 0;
#X connect 8 0 7 0;
#X connect 9 0 10 0;
#X connect 10 0 8 1;
#X restore 280 2682 pd fcpan 0.51;
#X obj 85 2179 s~ white;
#X obj 289 2204 r~ white;
#X obj 79 2223 catch~ l;
#X obj 156 2222 catch~ r;
#X obj 85 2147 noise~;
#X obj 280 2721 throw~ l;
#X obj 370 2721 throw~ r;
#X obj 391 2061 vd~ a 0;
#X obj 388 2095 lop~ 0.2;
#X obj 373 2199 sig~ 1;
#X obj 372 2234 -~;
#X obj 291 2269 max~;
#X obj 290 2301 -~;
#X obj 289 2333 *~;
#X obj 291 2370 hip~ 200;
#X obj 294 2411 lop~ 4000;
#X obj 291 2456 *~;
#X obj 289 2521 *~ 1.4;
#X obj 387 2127 *~ 0.4;
#X obj 386 2159 +~ 0.2;
#X floatatom 566 2175 5 0 0 0 - - -;
#X obj 572 2096 r loadbang;
#X obj 595 2270 *~ 1;
#X obj 532 2269 *~ 0.8;
#X obj 574 2141 random 5;
#X obj 563 2223 select 0 1 2 3 4 5;
#X obj 655 2272 *~ 1.2;
#X obj 720 2270 *~ 0;
#X obj 793 2271 *~ 0;
#X text 322 2034 Based on Ch41 from Designing Sound;
#X obj 607 2454 vsl 15 128 0.5 3 0 0 empty empty empty 0 -9 0 10 -262144
-1 -1 0 1;
#X floatatom 396 2594 5 0 0 0 - - -;
#X obj 297 2609 /~ 1;
#X msg 607 2634 1000;
#X msg 605 2605 1;
#X text 643 2604 Click to reset to default volume;
#X text 648 2634 Click to mute;
#X text 658 2506 Volume control;
#X obj 780 2556 r oscwind;
#X obj 782 2638 r oscwindstop;
#X obj 1101 2279 dac~;
#N canvas 0 50 1012 675 windspeed 0;
#X obj 62 28 osc~ 0.1;
#X obj 64 73 +~ 1;
#X obj 68 109 *~ 0.25;
#N canvas 1204 299 1001 749 gust 0;
#X obj 82 56 noise~;
#X obj 83 86 lop~ 0.5;
#X obj 83 123 lop~ 0.5;
#X obj 84 158 hip~ 0;
#X obj 85 194 *~ 50;
#X obj 88 234 *~;
#X obj 88 271 outlet~;
#X obj 175 58 inlet~;
#X obj 176 87 +~ 0.5;
#X obj 176 124 *~;
#X obj 177 159 -~ 0.125;
#X connect 0 0 1 0;
#X connect 1 0 2 0;
#X connect 2 0 3 0;
#X connect 3 0 4 0;
#X connect 4 0 5 0;
#X connect 5 0 6 0;
#X connect 7 0 8 0;
#X connect 8 0 9 0;
#X connect 9 0 10 0;
#X connect 10 0 5 1;
#X restore 132 146 pd gust;
#N canvas 816 619 1003 849 squall 0;
#X obj 86 36 inlet~;
#X obj 83 70 max~ 0.4;
#X obj 92 147 *~ 8;
#X obj 89 107 -~ 0.4;
#X obj 93 184 *~;
#X obj 182 64 noise~;
#X obj 193 101 lop~ 3;
#X obj 192 140 lop~ 3;
#X obj 187 178 hip~ 0;
#X obj 180 217 *~ 20;
#X obj 138 261 *~;
#X obj 139 301 outlet~;
#X connect 0 0 1 0;
#X connect 1 0 3 0;
#X connect 2 0 4 0;
#X connect 3 0 2 0;
#X connect 4 0 10 0;
#X connect 5 0 6 0;
#X connect 6 0 7 0;
#X connect 7 0 8 0;
#X connect 8 0 9 0;
#X connect 9 0 10 1;
#X connect 10 0 11 0;
#X restore 213 148 pd squall;
#X obj 131 196 +~;
#X obj 68 224 +~;
#X obj 71 258 clip~ 0 1;
#X obj 72 302 outlet~;
#X connect 0 0 1 0;
#X connect 1 0 2 0;
#X connect 2 0 6 0;
#X connect 2 0 3 0;
#X connect 2 0 4 0;
#X connect 3 0 5 0;
#X connect 4 0 5 1;
#X connect 5 0 6 1;
#X connect 6 0 7 0;
#X connect 7 0 8 0;
#X restore 1119 2368 pd windspeed;
#X obj 1121 2401 delwrite~ a 3000;
#X msg 1096 2078 \; pd dsp 1;
#X msg 1176 2078 \; pd dsp 0;
#X obj 1108 2167 s~ white;
#X obj 1381 2402 r~ white;
#X obj 1102 2211 catch~ l;
#X obj 1179 2210 catch~ r;
#X obj 1108 2135 noise~;
#X obj 1385 2796 throw~ l;
#X obj 1475 2796 throw~ r;
#X obj 1534 2119 clip~ 0.35 0.6;
#X obj 1533 2151 -~ 0.35;
#X obj 1532 2183 *~ 2;
#X obj 1529 2227 -~ 0.25;
#X obj 1529 2266 cos~;
#X obj 1524 2303 lop~ 0.5;
#X obj 1530 2346 *~ 200;
#X obj 1528 2390 +~ 30;
#X obj 1528 2431 osc~;
#X obj 1387 2454 bp~ 400 40;
#X obj 1383 2504 *~;
#X obj 1382 2548 *~ 2;
#X obj 1381 2593 *~;
#X obj 1623 2417 r~ white;
#X obj 1623 2743 throw~ l;
#X obj 1713 2743 throw~ r;
#X obj 1771 2242 -~ 0.25;
#X obj 1771 2281 cos~;
#X obj 1770 2446 osc~;
#X obj 1625 2519 *~;
#X obj 1624 2563 *~ 2;
#X obj 1623 2608 *~;
#X obj 1537 2085 vd~ a 100;
#X obj 1779 2100 vd~ a 300;
#X obj 1776 2134 clip~ 0.25 0.5;
#X obj 1776 2167 -~ 0.25;
#X obj 1767 2319 lop~ 0.1;
#X obj 1772 2361 *~ 100;
#X obj 1629 2469 bp~ 200 40;
#N canvas 0 50 1604 756 fcpan 0;
#X obj 156 54 inlet~;
#X obj 322 53 sig~ \$1;
#X obj 324 89 *~ 0.25;
#X obj 324 122 -~ 0.25;
#X obj 327 157 cos~;
#X obj 263 243 *~;
#X obj 265 276 outlet~ r;
#X obj 164 279 outlet~ l;
#X obj 162 246 *~;
#X obj 189 162 -~ 0.25;
#X obj 179 205 cos~;
#X connect 0 0 8 0;
#X connect 0 0 5 0;
#X connect 1 0 2 0;
#X connect 2 0 3 0;
#X connect 3 0 4 0;
#X connect 3 0 9 0;
#X connect 4 0 5 1;
#X connect 5 0 6 0;
#X connect 8 0 7 0;
#X connect 9 0 10 0;
#X connect 10 0 8 1;
#X restore 1382 2754 pd fcpan 0.91;
#N canvas 0 50 1604 756 fcpan 0;
#X obj 156 54 inlet~;
#X obj 322 53 sig~ \$1;
#X obj 324 89 *~ 0.25;
#X obj 324 122 -~ 0.25;
#X obj 327 157 cos~;
#X obj 263 243 *~;
#X obj 265 276 outlet~ r;
#X obj 164 279 outlet~ l;
#X obj 162 246 *~;
#X obj 189 162 -~ 0.25;
#X obj 179 205 cos~;
#X connect 0 0 8 0;
#X connect 0 0 5 0;
#X connect 1 0 2 0;
#X connect 2 0 3 0;
#X connect 3 0 4 0;
#X connect 3 0 9 0;
#X connect 4 0 5 1;
#X connect 5 0 6 0;
#X connect 8 0 7 0;
#X connect 9 0 10 0;
#X connect 10 0 8 1;
#X restore 1620 2701 pd fcpan 0.03;
#X obj 1774 2198 *~ 1.8;
#X obj 1770 2405 +~ 19;
#X obj 1077 2488 vsl 15 128 0.5 3 0 0 empty empty empty 0 -9 0 10 -262144
-1 -1 0 1;
#X floatatom 1263 2693 5 0 0 0 - - -;
#X obj 1382 2687 /~ 1;
#X msg 1078 2659 1000;
#X msg 1076 2630 1;
#X text 1114 2629 Click to reset to default volume;
#X text 1119 2659 Click to mute;
#X text 1114 2547 Volume control;
#X obj 1929 2494 vsl 15 128 0.5 3 0 0 empty empty empty 0 -9 0 10 -262144
-1 -1 0 1;
#X floatatom 1719 2625 5 0 0 0 - - -;
#X obj 1619 2652 /~ 1;
#X msg 1930 2665 1000;
#X msg 1928 2636 1;
#X text 1966 2635 Click to reset to default volume;
#X text 1971 2665 Click to mute;
#X text 1966 2553 Volume control;
#X obj 2058 2596 r oscwind;
#X obj 2085 2667 r oscwindstop;
#X text 1959 2298;
#X obj 976 2606 r oscwind;
#X obj 931 2637 r oscwindstop;
#X text 380 2020 Wind Sounds;
#X text 1263 2126;
#X obj 434 1881;
#X connect 6 0 28 0;
#X connect 7 0 15 0;
#X connect 7 1 20 0;
#X connect 7 2 21 0;
#X connect 7 3 22 0;
#X connect 7 4 23 0;
#X connect 7 5 24 0;
#X connect 7 6 25 0;
#X connect 7 7 26 0;
#X connect 7 8 15 0;
#X connect 8 0 41 0;
#X connect 8 0 44 0;
#X connect 9 0 73 0;
#X connect 10 0 8 0;
#X connect 11 0 10 0;
#X connect 11 0 45 0;
#X connect 12 0 9 1;
#X connect 13 0 11 1;
#X connect 14 0 43 0;
#X connect 15 0 11 0;
#X connect 16 0 7 0;
#X connect 18 0 19 0;
#X connect 20 0 11 0;
#X connect 21 0 11 0;
#X connect 22 0 11 0;
#X connect 23 0 11 0;
#X connect 24 0 11 0;
#X connect 25 0 11 0;
#X connect 26 0 11 0;
#X connect 27 0 16 0;
#X connect 28 0 31 0;
#X connect 29 0 28 0;
#X connect 32 0 94 0;
#X connect 33 0 36 0;
#X connect 34 0 53 0;
#X connect 34 0 226 0;
#X connect 35 0 53 1;
#X connect 36 0 47 0;
#X connect 36 0 50 0;
#X connect 37 0 32 0;
#X connect 38 0 35 0;
#X connect 39 0 66 0;
#X connect 40 0 34 0;
#X connect 40 0 66 0;
#X connect 41 0 9 0;
#X connect 42 0 9 0;
#X connect 43 0 13 0;
#X connect 44 0 42 0;
#X connect 45 0 12 0;
#X connect 47 0 37 0;
#X connect 49 0 37 1;
#X connect 50 0 49 0;
#X connect 51 0 32 1;
#X connect 52 0 51 0;
#X connect 53 0 59 0;
#X connect 53 0 52 0;
#X connect 54 0 56 0;
#X connect 55 0 57 0;
#X connect 55 0 54 0;
#X connect 56 0 65 0;
#X connect 56 1 65 0;
#X connect 56 2 65 0;
#X connect 56 3 65 0;
#X connect 56 4 65 0;
#X connect 56 5 60 0;
#X connect 57 0 33 0;
#X connect 58 0 55 0;
#X connect 59 0 58 0;
#X connect 60 0 62 0;
#X connect 61 0 63 0;
#X connect 61 1 63 0;
#X connect 61 2 63 0;
#X connect 61 3 63 0;
#X connect 61 4 63 0;
#X connect 61 5 64 0;
#X connect 62 0 61 0;
#X connect 63 0 57 1;
#X connect 64 0 57 1;
#X connect 65 0 57 1;
#X connect 66 0 35 0;
#X connect 70 0 92 0;
#X connect 71 0 92 1;
#X connect 75 0 76 0;
#X connect 76 0 77 0;
#X connect 77 0 93 0;
#X connect 78 0 79 0;
#X connect 79 0 80 0;
#X connect 80 0 77 1;
#X connect 81 0 75 0;
#X connect 84 0 81 0;
#X connect 85 0 84 0;
#X connect 87 0 71 0;
#X connect 88 0 90 0;
#X connect 89 0 91 0;
#X connect 90 0 93 1;
#X connect 91 0 94 1;
#X connect 92 0 69 0;
#X connect 92 0 69 1;
#X connect 93 0 86 0;
#X connect 94 0 74 0;
#X connect 98 0 105 0;
#X connect 99 0 197 0;
#X connect 100 0 98 0;
#X connect 101 0 100 0;
#X connect 101 0 112 0;
#X connect 101 0 122 0;
#X connect 102 0 99 1;
#X connect 103 0 101 1;
#X connect 104 0 113 0;
#X connect 105 0 99 0;
#X connect 106 0 109 0;
#X connect 107 0 106 0;
#X connect 107 0 159 0;
#X connect 107 0 157 0;
#X connect 107 0 124 0;
#X connect 108 0 106 1;
#X connect 109 0 110 0;
#X connect 109 0 184 0;
#X connect 109 0 186 0;
#X connect 110 0 109 1;
#X connect 111 0 108 0;
#X connect 113 0 103 0;
#X connect 114 0 101 0;
#X connect 115 0 101 0;
#X connect 116 0 101 0;
#X connect 117 0 101 0;
#X connect 118 0 101 0;
#X connect 119 0 101 0;
#X connect 120 0 101 0;
#X connect 121 0 101 0;
#X connect 122 0 102 0;
#X connect 123 0 157 0;
#X connect 123 0 124 0;
#X connect 124 0 109 0;
#X connect 125 0 129 0;
#X connect 126 0 130 0;
#X connect 127 0 131 0;
#X connect 128 0 132 0;
#X connect 129 0 101 0;
#X connect 130 0 101 0;
#X connect 131 0 101 0;
#X connect 132 0 101 0;
#X connect 133 0 101 0;
#X connect 134 0 101 0;
#X connect 135 0 101 0;
#X connect 136 0 101 0;
#X connect 137 0 101 0;
#X connect 138 0 101 0;
#X connect 139 0 101 0;
#X connect 140 0 101 0;
#X connect 141 0 133 0;
#X connect 142 0 135 0;
#X connect 143 0 136 0;
#X connect 144 0 134 0;
#X connect 145 0 137 0;
#X connect 146 0 138 0;
#X connect 147 0 139 0;
#X connect 148 0 140 0;
#X connect 149 0 101 0;
#X connect 150 0 101 0;
#X connect 151 0 101 0;
#X connect 152 0 101 0;
#X connect 153 0 149 0;
#X connect 154 0 150 0;
#X connect 155 0 151 0;
#X connect 156 0 152 0;
#X connect 157 0 158 0;
#X connect 158 0 108 0;
#X connect 158 0 185 0;
#X connect 159 0 158 0;
#X connect 160 0 101 0;
#X connect 161 0 101 0;
#X connect 162 0 101 0;
#X connect 163 0 101 0;
#X connect 164 0 101 0;
#X connect 165 0 101 0;
#X connect 166 0 101 0;
#X connect 167 0 101 0;
#X connect 168 0 101 0;
#X connect 169 0 101 0;
#X connect 170 0 101 0;
#X connect 171 0 101 0;
#X connect 172 0 160 0;
#X connect 173 0 161 0;
#X connect 174 0 162 0;
#X connect 175 0 163 0;
#X connect 176 0 164 0;
#X connect 177 0 165 0;
#X connect 178 0 166 0;
#X connect 179 0 167 0;
#X connect 180 0 168 0;
#X connect 181 0 169 0;
#X connect 182 0 170 0;
#X connect 183 0 171 0;
#X connect 184 0 125 0;
#X connect 184 1 126 0;
#X connect 184 2 127 0;
#X connect 184 3 128 0;
#X connect 184 4 125 0;
#X connect 184 5 126 0;
#X connect 184 6 127 0;
#X connect 184 7 128 0;
#X connect 184 8 141 0;
#X connect 184 9 144 0;
#X connect 184 10 142 0;
#X connect 184 11 143 0;
#X connect 184 12 141 0;
#X connect 184 13 144 0;
#X connect 184 14 142 0;
#X connect 184 15 143 0;
#X connect 184 16 145 0;
#X connect 184 17 146 0;
#X connect 184 18 147 0;
#X connect 184 19 148 0;
#X connect 184 20 145 0;
#X connect 184 21 146 0;
#X connect 184 22 147 0;
#X connect 184 23 148 0;
#X connect 184 24 153 0;
#X connect 184 25 154 0;
#X connect 184 26 155 0;
#X connect 184 27 156 0;
#X connect 184 28 153 0;
#X connect 184 29 154 0;
#X connect 184 30 155 0;
#X connect 184 31 156 0;
#X connect 184 32 172 0;
#X connect 184 33 173 0;
#X connect 184 34 174 0;
#X connect 184 35 175 0;
#X connect 184 36 176 0;
#X connect 184 37 177 0;
#X connect 184 38 178 0;
#X connect 184 39 179 0;
#X connect 184 40 180 0;
#X connect 184 41 181 0;
#X connect 184 42 182 0;
#X connect 184 43 183 0;
#X connect 185 0 158 1;
#X connect 186 0 118 0;
#X connect 186 0 116 0;
#X connect 186 1 118 0;
#X connect 186 1 116 0;
#X connect 186 2 118 0;
#X connect 186 2 116 0;
#X connect 186 3 118 0;
#X connect 186 3 116 0;
#X connect 186 4 119 0;
#X connect 186 4 117 0;
#X connect 186 5 119 0;
#X connect 186 5 117 0;
#X connect 186 6 119 0;
#X connect 186 6 117 0;
#X connect 186 7 119 0;
#X connect 186 7 117 0;
#X connect 186 8 120 0;
#X connect 186 8 115 0;
#X connect 186 9 120 0;
#X connect 186 9 115 0;
#X connect 186 10 120 0;
#X connect 186 10 115 0;
#X connect 186 11 120 0;
#X connect 186 11 115 0;
#X connect 186 12 121 0;
#X connect 186 12 114 0;
#X connect 186 13 121 0;
#X connect 186 13 114 0;
#X connect 186 14 121 0;
#X connect 186 14 114 0;
#X connect 186 15 121 0;
#X connect 186 15 114 0;
#X connect 186 16 121 0;
#X connect 186 16 114 0;
#X connect 186 17 121 0;
#X connect 186 17 114 0;
#X connect 186 18 121 0;
#X connect 186 18 114 0;
#X connect 186 19 121 0;
#X connect 186 19 114 0;
#X connect 195 0 196 0;
#X connect 196 0 197 1;
#X connect 197 0 203 0;
#X connect 199 0 196 0;
#X connect 200 0 196 0;
#X connect 204 0 124 0;
#X connect 204 0 157 0;
#X connect 204 0 106 0;
#X connect 204 0 159 0;
#X connect 208 0 224 0;
#X connect 208 1 228 0;
#X connect 208 2 225 0;
#X connect 208 3 232 0;
#X connect 208 4 227 0;
#X connect 208 5 229 0;
#X connect 208 6 231 0;
#X connect 208 7 230 0;
#X connect 208 8 224 0;
#X connect 209 0 214 0;
#X connect 209 0 216 0;
#X connect 210 0 221 0;
#X connect 210 0 222 0;
#X connect 211 0 32 1;
#X connect 212 0 210 1;
#X connect 213 0 223 0;
#X connect 214 0 32 0;
#X connect 215 0 32 0;
#X connect 216 0 215 0;
#X connect 217 0 208 0;
#X connect 218 0 219 0;
#X connect 218 0 220 0;
#X connect 219 0 218 1;
#X connect 220 0 217 0;
#X connect 221 0 211 0;
#X connect 222 0 209 0;
#X connect 223 0 212 0;
#X connect 224 0 210 0;
#X connect 225 0 210 0;
#X connect 226 0 218 0;
#X connect 227 0 210 0;
#X connect 228 0 210 0;
#X connect 229 0 210 0;
#X connect 230 0 210 0;
#X connect 231 0 210 0;
#X connect 232 0 210 0;
#X connect 235 0 236 0;
#X connect 236 0 237 1;
#X connect 237 0 234 0;
#X connect 240 0 241 0;
#X connect 241 0 243 1;
#X connect 243 0 239 0;
#X connect 244 0 245 0;
#X connect 245 0 243 0;
#X connect 246 1 245 0;
#X connect 249 0 251 0;
#X connect 250 0 244 0;
#X connect 251 0 252 0;
#X connect 252 0 237 0;
#X connect 253 1 252 0;
#X connect 255 0 256 0;
#X connect 257 0 263 0;
#X connect 257 1 264 0;
#X connect 259 0 269 0;
#X connect 260 0 254 0;
#X connect 261 0 254 1;
#X connect 262 0 258 0;
#X connect 265 0 266 0;
#X connect 266 0 274 1;
#X connect 266 0 276 0;
#X connect 266 0 280 0;
#X connect 266 0 281 0;
#X connect 266 0 284 0;
#X connect 266 0 285 0;
#X connect 266 0 286 0;
#X connect 267 0 268 0;
#X connect 268 0 269 1;
#X connect 268 0 270 1;
#X connect 268 0 271 1;
#X connect 269 0 270 0;
#X connect 270 0 271 0;
#X connect 271 0 272 0;
#X connect 272 0 273 0;
#X connect 273 0 274 0;
#X connect 274 0 275 0;
#X connect 275 0 290 0;
#X connect 276 0 277 0;
#X connect 277 0 268 1;
#X connect 278 0 283 0;
#X connect 279 0 282 0;
#X connect 280 0 277 0;
#X connect 281 0 277 0;
#X connect 282 0 278 0;
#X connect 283 0 281 0;
#X connect 283 1 280 0;
#X connect 283 2 284 0;
#X connect 283 3 285 0;
#X connect 283 4 286 0;
#X connect 284 0 277 0;
#X connect 285 0 277 0;
#X connect 286 0 277 0;
#X connect 288 0 289 0;
#X connect 289 0 290 1;
#X connect 290 0 257 0;
#X connect 291 0 289 0;
#X connect 292 0 289 0;
#X connect 296 0 292 0;
#X connect 297 0 291 0;
#X connect 299 0 300 0;
#X connect 304 0 319 0;
#X connect 305 0 298 0;
#X connect 306 0 298 1;
#X connect 307 0 303 0;
#X connect 310 0 311 0;
#X connect 311 0 312 0;
#X connect 312 0 313 0;
#X connect 313 0 314 0;
#X connect 314 0 315 0;
#X connect 315 0 316 0;
#X connect 315 0 320 1;
#X connect 316 0 317 0;
#X connect 317 0 318 0;
#X connect 318 0 322 1;
#X connect 319 0 320 0;
#X connect 320 0 321 0;
#X connect 321 0 322 0;
#X connect 322 0 345 0;
#X connect 323 0 338 0;
#X connect 326 0 327 0;
#X connect 327 0 336 0;
#X connect 328 0 331 1;
#X connect 329 0 330 0;
#X connect 330 0 331 0;
#X connect 331 0 353 0;
#X connect 332 0 310 0;
#X connect 333 0 334 0;
#X connect 334 0 335 0;
#X connect 335 0 341 0;
#X connect 336 0 329 1;
#X connect 336 0 337 0;
#X connect 337 0 342 0;
#X connect 338 0 329 0;
#X connect 339 0 308 0;
#X connect 339 1 309 0;
#X connect 340 0 324 0;
#X connect 340 1 325 0;
#X connect 341 0 326 0;
#X connect 342 0 328 0;
#X connect 343 0 344 0;
#X connect 344 0 345 1;
#X connect 345 0 339 0;
#X connect 346 0 344 0;
#X connect 347 0 344 0;
#X connect 351 0 352 0;
#X connect 352 0 353 1;
#X connect 353 0 340 0;
#X connect 354 0 352 0;
#X connect 355 0 352 0;
#X connect 359 0 355 0;
#X connect 360 0 354 0;
#X connect 362 0 347 0;
#X connect 363 0 346 0;
