#N canvas -8 0 2315 997 10;
#X text 159 299 creation arguments are OSC address;
#X text 161 260 set message to change OSC address;
#X text 152 85 1 Set IP Address : network address;
#X text 152 105 2 Set Ports (sending and listening);
#X text 152 124 3 Set OSC Addresses (routing osc data;
#X text 154 59 Key Settings;
#X floatatom 26 229 5 0 0 0 - - -;
#N canvas 144 167 1031 674 oscReceive 0;
#X obj 55 184 netreceive -u -b;
#X msg 78 143 listen 0;
#X text 152 143 stop listening;
#X text 64 58 packets from network;
#X text 173 177 UDP packets \, binary output, f 13;
#X obj 45 314 print;
#X obj 45 272 oscparse;
#X text 150 114 listen on port 8000;
#X obj 177 269 oscparse;
#X obj 177 293 list trim;
#X floatatom 140 380 5 0 0 0 - - -;
#X text 241 267 Parse the OSC message;
#X obj 177 319 route unity;
#X obj 139 357 route trigger;
#X obj 140 407 s osctrig;
#X msg 66 115 listen 8000;
#X obj 66 84 loadbang;
#X floatatom 244 382 5 0 0 0 - - -;
#X obj 243 359 route tempo;
#X obj 244 409 s osctempo;
#X floatatom 339 382 5 0 0 0 - - -;
#X obj 338 359 route playseq;
#X obj 339 409 s oscplayseq;
#X floatatom 437 382 5 0 0 0 - - -;
#X floatatom 537 381 5 0 0 0 - - -;
#X obj 537 408 s oscdone;
#X obj 536 358 route done;
#X obj 630 358 route tree;
#X obj 714 356 route rock;
#X obj 714 408 s oscrock;
#X obj 630 408 s osctree;
#X floatatom 632 383 5 0 0 0 - - -;
#X floatatom 714 384 5 0 0 0 - - -;
#X floatatom 803 382 5 0 0 0 - - -;
#X obj 803 355 route wind;
#X obj 803 407 s oscwind;
#X floatatom 881 382 5 0 0 0 - - -;
#X obj 881 355 route windstop;
#X obj 881 407 s oscwindstop;
#X obj 437 409 s oscstep;
#X obj 436 359 route step;
#X floatatom 983 381 5 0 0 0 - - -;
#X obj 983 354 route allitems;
#X obj 983 406 s oscallitems;
#X connect 0 0 6 0;
#X connect 0 0 8 0;
#X connect 1 0 0 0;
#X connect 6 0 5 0;
#X connect 8 0 9 0;
#X connect 9 0 12 0;
#X connect 10 0 14 0;
#X connect 12 0 13 0;
#X connect 12 0 18 0;
#X connect 12 0 21 0;
#X connect 12 0 26 0;
#X connect 12 0 27 0;
#X connect 12 0 28 0;
#X connect 12 0 34 0;
#X connect 12 0 37 0;
#X connect 12 0 40 0;
#X connect 12 0 42 0;
#X connect 13 0 10 0;
#X connect 15 0 0 0;
#X connect 16 0 15 0;
#X connect 17 0 19 0;
#X connect 18 0 17 0;
#X connect 20 0 22 0;
#X connect 21 0 20 0;
#X connect 23 0 39 0;
#X connect 24 0 25 0;
#X connect 26 0 24 0;
#X connect 27 0 31 0;
#X connect 28 0 32 0;
#X connect 31 0 30 0;
#X connect 32 0 29 0;
#X connect 33 0 35 0;
#X connect 34 0 33 0;
#X connect 36 0 38 0;
#X connect 37 0 36 0;
#X connect 40 0 23 0;
#X connect 41 0 43 0;
#X connect 42 0 41 0;
#X restore 23 190 pd oscReceive;
#X obj 24 102 tgl 15 0 empty empty empty 17 7 0 10 -262144 -1 -1 0
1;
#X msg 24 136 \; pd dsp \$1;
#X obj 26 300 oscformat PD message;
#X msg 58 261 set PD message;
#N canvas 927 141 450 415 oscSend 0;
#X msg 158 207 disconnect;
#X obj 61 253 netsend -u -b;
#X obj 59 55 list prepend send;
#X obj 59 80 list trim;
#X msg 150 175 connect 127.0.0.1 8001;
#X obj 59 29 r oscOut;
#X text 301 163 send to port 8001;
#X msg 147 148 connect localhost 8001;
#X obj 147 108 loadbang;
#X connect 0 0 1 0;
#X connect 2 0 3 0;
#X connect 3 0 1 0;
#X connect 4 0 1 0;
#X connect 5 0 2 0;
#X connect 7 0 1 0;
#X connect 8 0 7 0;
#X restore 23 166 pd oscSend;
#X obj 26 335 s oscOut;
#X obj 1729 216 tgl 15 0 empty empty empty 17 7 0 10 -262144 -1 -1
0 1;
#X floatatom 1822 240 5 0 0 0 - - -;
#X obj 1873 207 r osctempo;
#X obj 1822 177 loadbang;
#X obj 1729 176 r oscplayseq;
#X text 1703 116 Sequence playback: tempo increases as more cubes get
collected by the player.;
#X msg 1822 208 400;
#X text 15 77 Toggle DSP;
#X obj 39 510 dac~;
#X obj 38 433 catch~ $output;
#X floatatom 84 512 5 0 0 0 - - -;
#X text 17 407 Master Volume Output;
#X obj 974 695 throw~ $output;
#X obj 154 381 vsl 15 128 1 100 0 0 empty empty empty 0 -9 0 10 -262144
-1 -1 0 1;
#X obj 1132 503 vsl 15 128 1 100 0 0 empty empty empty 0 -9 0 10 -262144
-1 -1 0 1;
#X floatatom 1031 634 5 0 0 0 - - -;
#X obj 38 467 /~ 5;
#X obj 973 649 /~ 1;
#X text 179 390 Volume Control Higher = Quieter;
#X text 1150 617 Volume Control Higher = Quieter;
#X floatatom 445 1710 5 0 0 0 - - -;
#X obj 445 1864 *~;
#X obj 444 1679 mtof;
#X obj 442 1618 + 0;
#X obj 560 1770 vline~;
#X floatatom 560 1674 5 0 0 0 - - -;
#X obj 560 1621 loadbang;
#X obj 446 1768 osc~;
#X obj 645 1045 metro 4000;
#X obj 524 854 tgl 15 0 empty empty empty 17 7 0 10 -262144 -1 -1 0
1;
#X floatatom 741 1002 5 0 0 0 - - -;
#X obj 659 1083 f;
#X obj 702 1085 + 1;
#X obj 856 871 vsl 15 128 50 500 0 0 empty empty empty 0 -9 0 10 -262144
-1 -1 0 1;
#X floatatom 328 1720 5 0 0 0 - - -;
#X msg 560 1648 48;
#X msg 1747 1414 12;
#X msg 1635 1416 11;
#X msg 1497 1416 9;
#X msg 1567 1413 10;
#X msg 1460 1379 -9;
#X msg 1530 1380 -8;
#X msg 1610 1380 -7;
#X msg 1681 1374 -6;
#X msg 560 1717 0.5 100 \, 0 500 500;
#X obj 472 981 loadbang;
#X msg 536 1020 0;
#X msg 27 1332 -5;
#X msg 66 1332 -3;
#X msg 107 1332 -1;
#X msg 149 1332 1;
#X floatatom 13 1387 5 0 0 0 - - -;
#X floatatom 63 1387 5 0 0 0 - - -;
#X floatatom 110 1387 5 0 0 0 - - -;
#X floatatom 159 1385 5 0 0 0 - - -;
#X floatatom 223 1385 5 0 0 0 - - -;
#X floatatom 273 1385 5 0 0 0 - - -;
#X floatatom 320 1385 5 0 0 0 - - -;
#X floatatom 369 1383 5 0 0 0 - - -;
#X floatatom 428 1384 5 0 0 0 - - -;
#X floatatom 478 1384 5 0 0 0 - - -;
#X floatatom 525 1384 5 0 0 0 - - -;
#X floatatom 574 1382 5 0 0 0 - - -;
#X msg 237 1330 -4;
#X msg 317 1330 0;
#X msg 359 1330 2;
#X msg 276 1330 -2;
#X msg 442 1329 -3;
#X msg 481 1329 -1;
#X msg 522 1329 1;
#X msg 564 1329 3;
#X floatatom 622 1386 5 0 0 0 - - -;
#X floatatom 672 1386 5 0 0 0 - - -;
#X floatatom 719 1386 5 0 0 0 - - -;
#X floatatom 768 1384 5 0 0 0 - - -;
#X msg 636 1331 -2;
#X msg 675 1331 0;
#X msg 716 1331 2;
#X msg 758 1331 4;
#X msg 586 1021 216.5;
#X obj 659 966 f;
#X obj 662 915 metro 500;
#X floatatom 822 1388 5 0 0 0 - - -;
#X floatatom 872 1388 5 0 0 0 - - -;
#X floatatom 919 1388 5 0 0 0 - - -;
#X floatatom 968 1386 5 0 0 0 - - -;
#X floatatom 1018 1387 5 0 0 0 - - -;
#X floatatom 1068 1387 5 0 0 0 - - -;
#X floatatom 1115 1387 5 0 0 0 - - -;
#X floatatom 1164 1385 5 0 0 0 - - -;
#X floatatom 1214 1387 5 0 0 0 - - -;
#X floatatom 1264 1387 5 0 0 0 - - -;
#X floatatom 1311 1387 5 0 0 0 - - -;
#X floatatom 1360 1385 5 0 0 0 - - -;
#X msg 836 1333 -1;
#X msg 875 1333 1;
#X msg 916 1333 3;
#X msg 958 1333 5;
#X msg 1032 1332 0;
#X msg 1071 1332 2;
#X msg 1112 1332 4;
#X msg 1154 1332 6;
#X msg 1228 1332 1;
#X msg 1267 1332 3;
#X msg 1308 1332 5;
#X msg 1350 1332 7;
#X obj 526 1141 select 0 1 2 3 4 5 6 7 8 9 10 11 12 13 14 15 16 17
18 19 20 21 22 23 24 25 26 27 28 29 30 31 32 33 34 35 36 37 38 39 40
41 42 43;
#X obj 702 968 - 4;
#X text 317 981 Resets settings on start;
#X text 418 854 Click to Start!;
#X text 855 851 Manual Tempo Control;
#X text 662 891 Speeds up tempo as sound plays;
#X text 187 1720 MIDI Debug Output;
#X text 624 1655 48 should be note C4;
#X text 1561 1124 Ending Section;
#X text 625 1113 Repeating Section;
#X obj 753 1770 vsl 15 128 0.5 3 0 0 empty empty empty 0 -9 0 10 -262144
-1 -1 0 1;
#X floatatom 543 1901 5 0 0 0 - - -;
#X obj 444 1916 /~ 1;
#X text 773 1769 Volume Control;
#X msg 754 1941 1000;
#X msg 752 1912 1;
#X text 790 1911 Click to reset to default volume;
#X text 795 1941 Click to mute;
#X obj 444 1964 throw~ $output;
#X obj 608 837 r oscdone;
#X text 151 142 4 Master Volume Output Slider;
#X text 519 782 Plays when all the squares are picked up our "Success"
Audio Feedback;
#X text 11 11 GROUP E Lane Albrecht Pierce Sullivan Jalen Pastor Sam
Vik;
#X obj 2103 474 throw~ $output;
#X obj 2194 278 vsl 15 128 1 100 0 0 empty empty empty 0 -9 0 10 -262144
-1 -1 0 1;
#X floatatom 2125 409 5 0 0 0 - - -;
#X obj 2104 444 /~ 1;
#X text 2191 261 Volume Control Higher = Quieter;
#X obj 2123 952 throw~ $output;
#X obj 2212 763 vsl 15 128 1 100 0 0 empty empty empty 0 -9 0 10 -262144
-1 -1 0 1;
#X floatatom 2143 894 5 0 0 0 - - -;
#X text 2193 746 Volume Control Higher = Quieter;
#X obj 2122 922 /~ 1;
#X msg 2122 652 127;
#N canvas 51 142 671 640 akick3 0;
#X obj 146 333 osc~;
#X obj 147 300 vline~;
#X msg 147 260 \$1 \, \$2 \$3;
#X obj 147 228 pack f f f;
#X obj 110 116 nbx 3 14 10 999 0 1 empty empty t -8 8 0 10 -262144
-1 -1 323 256;
#X obj 158 116 nbx 3 14 10 999 0 1 empty empty b -8 8 0 10 -262144
-1 -1 23 256;
#X obj 206 116 nbx 3 14 1 500 0 1 empty empty d -8 8 0 10 -262144 -1
-1 39 256;
#X obj 113 184 float;
#X obj 109 389 *~;
#X obj 83 349 *~;
#X obj 78 315 vline~;
#X obj 55 263 pack f f;
#X obj 113 137 hsl 128 8 0 1 0 1 empty empty d -10 5 0 10 -262144 -1
-1 6400 1;
#X obj 40 166 t f f;
#X obj 44 192 *;
#X obj 43 220 * 2000;
#X obj 30 8 inlet;
#X obj 108 431 outlet~;
#X obj 4 38 moses 0.0001;
#X obj 251 239 spigot 1;
#X obj 38 82 t f b b;
#X msg 276 209 0;
#X obj 287 179 delay;
#X msg 310 209 1;
#X msg 52 289 \$1 0.5 \, 0 \$2 1;
#X msg 244 270 0.25;
#X obj 48 59 / 128;
#X connect 0 0 8 1;
#X connect 1 0 0 0;
#X connect 2 0 1 0;
#X connect 3 0 2 0;
#X connect 4 0 7 1;
#X connect 5 0 3 1;
#X connect 6 0 3 2;
#X connect 7 0 3 0;
#X connect 8 0 17 0;
#X connect 9 0 8 0;
#X connect 10 0 9 1;
#X connect 10 0 9 0;
#X connect 11 0 24 0;
#X connect 12 0 13 0;
#X connect 13 0 14 0;
#X connect 13 1 14 1;
#X connect 14 0 15 0;
#X connect 15 0 11 1;
#X connect 15 0 22 1;
#X connect 16 0 18 0;
#X connect 18 1 26 0;
#X connect 19 0 25 0;
#X connect 20 0 11 0;
#X connect 20 1 7 0;
#X connect 20 1 21 0;
#X connect 20 1 22 0;
#X connect 20 2 19 0;
#X connect 21 0 19 1;
#X connect 22 0 23 0;
#X connect 23 0 19 1;
#X connect 24 0 10 0;
#X connect 25 0 0 1;
#X connect 26 0 20 0;
#X coords 0 -1 1 1 150 50 1 100 100;
#X restore 2122 690 pd akick3;
#X obj 2164 652 notein;
#X text 2113 595 Trigger noise burst when picking up a tree;
#X text 2082 99 Trigger noise burst when picking up a rock;
#X obj 2103 138 r oscrock;
#X obj 2122 612 r osctree;
#X msg 2103 170 127;
#N canvas 51 142 671 640 akick3 0;
#X obj 146 333 osc~;
#X obj 147 300 vline~;
#X msg 147 260 \$1 \, \$2 \$3;
#X obj 147 228 pack f f f;
#X obj 110 116 nbx 3 14 10 999 0 1 empty empty t -8 8 0 10 -262144
-1 -1 307 256;
#X obj 158 116 nbx 3 14 10 999 0 1 empty empty b -8 8 0 10 -262144
-1 -1 55 256;
#X obj 206 116 nbx 3 14 1 500 0 1 empty empty d -8 8 0 10 -262144 -1
-1 23 256;
#X obj 113 184 float;
#X obj 109 389 *~;
#X obj 83 349 *~;
#X obj 78 315 vline~;
#X obj 55 263 pack f f;
#X obj 113 137 hsl 128 8 0 1 0 1 empty empty d -10 5 0 10 -262144 -1
-1 10300 1;
#X obj 40 166 t f f;
#X obj 44 192 *;
#X obj 43 220 * 2000;
#X obj 30 8 inlet;
#X obj 108 431 outlet~;
#X obj 4 38 moses 0.0001;
#X obj 251 239 spigot 1;
#X obj 38 82 t f b b;
#X msg 276 209 0;
#X obj 287 179 delay;
#X msg 310 209 1;
#X msg 52 289 \$1 0.5 \, 0 \$2 1;
#X msg 244 270 0.25;
#X obj 48 59 / 128;
#X connect 0 0 8 1;
#X connect 1 0 0 0;
#X connect 2 0 1 0;
#X connect 3 0 2 0;
#X connect 4 0 7 1;
#X connect 5 0 3 1;
#X connect 6 0 3 2;
#X connect 7 0 3 0;
#X connect 8 0 17 0;
#X connect 9 0 8 0;
#X connect 10 0 9 1;
#X connect 10 0 9 0;
#X connect 11 0 24 0;
#X connect 12 0 13 0;
#X connect 13 0 14 0;
#X connect 13 1 14 1;
#X connect 14 0 15 0;
#X connect 15 0 11 1;
#X connect 15 0 22 1;
#X connect 16 0 18 0;
#X connect 18 1 26 0;
#X connect 19 0 25 0;
#X connect 20 0 11 0;
#X connect 20 1 7 0;
#X connect 20 1 21 0;
#X connect 20 1 22 0;
#X connect 20 2 19 0;
#X connect 21 0 19 1;
#X connect 22 0 23 0;
#X connect 23 0 19 1;
#X connect 24 0 10 0;
#X connect 25 0 0 1;
#X connect 26 0 20 0;
#X coords 0 -1 1 1 150 50 1 100 100;
#X restore 2103 208 pd akick3;
#X obj 2145 170 notein;
#X obj 78 2291 dac~;
#N canvas 0 50 1012 675 windspeed 0;
#X obj 62 28 osc~ 0.1;
#X obj 64 73 +~ 1;
#X obj 68 109 *~ 0.25;
#N canvas 1204 299 1001 749 gust 0;
#X obj 82 56 noise~;
#X obj 83 86 lop~ 0.5;
#X obj 83 123 lop~ 0.5;
#X obj 84 158 hip~ 0;
#X obj 85 194 *~ 50;
#X obj 88 234 *~;
#X obj 88 271 outlet~;
#X obj 175 58 inlet~;
#X obj 176 87 +~ 0.5;
#X obj 176 124 *~;
#X obj 177 159 -~ 0.125;
#X connect 0 0 1 0;
#X connect 1 0 2 0;
#X connect 2 0 3 0;
#X connect 3 0 4 0;
#X connect 4 0 5 0;
#X connect 5 0 6 0;
#X connect 7 0 8 0;
#X connect 8 0 9 0;
#X connect 9 0 10 0;
#X connect 10 0 5 1;
#X restore 132 146 pd gust;
#N canvas 816 619 1003 849 squall 0;
#X obj 86 36 inlet~;
#X obj 83 70 max~ 0.4;
#X obj 92 147 *~ 8;
#X obj 89 107 -~ 0.4;
#X obj 93 184 *~;
#X obj 182 64 noise~;
#X obj 193 101 lop~ 3;
#X obj 192 140 lop~ 3;
#X obj 187 178 hip~ 0;
#X obj 180 217 *~ 20;
#X obj 138 261 *~;
#X obj 139 301 outlet~;
#X connect 0 0 1 0;
#X connect 1 0 3 0;
#X connect 2 0 4 0;
#X connect 3 0 2 0;
#X connect 4 0 10 0;
#X connect 5 0 6 0;
#X connect 6 0 7 0;
#X connect 7 0 8 0;
#X connect 8 0 9 0;
#X connect 9 0 10 1;
#X connect 10 0 11 0;
#X restore 213 148 pd squall;
#X obj 131 196 +~;
#X obj 68 224 +~;
#X obj 71 258 clip~ 0 1;
#X obj 72 302 outlet~;
#X connect 0 0 1 0;
#X connect 1 0 2 0;
#X connect 2 0 6 0;
#X connect 2 0 3 0;
#X connect 2 0 4 0;
#X connect 3 0 5 0;
#X connect 4 0 5 1;
#X connect 5 0 6 1;
#X connect 6 0 7 0;
#X connect 7 0 8 0;
#X restore 96 2380 pd windspeed;
#X obj 98 2413 delwrite~ a 3000;
#N canvas 0 50 1604 756 fcpan 0;
#X obj 156 54 inlet~;
#X obj 322 53 sig~ \$1;
#X obj 324 89 *~ 0.25;
#X obj 324 122 -~ 0.25;
#X obj 327 157 cos~;
#X obj 263 243 *~;
#X obj 265 276 outlet~ r;
#X obj 164 279 outlet~ l;
#X obj 162 246 *~;
#X obj 189 162 -~ 0.25;
#X obj 179 205 cos~;
#X connect 0 0 8 0;
#X connect 0 0 5 0;
#X connect 1 0 2 0;
#X connect 2 0 3 0;
#X connect 3 0 4 0;
#X connect 3 0 9 0;
#X connect 4 0 5 1;
#X connect 5 0 6 0;
#X connect 8 0 7 0;
#X connect 9 0 10 0;
#X connect 10 0 8 1;
#X restore 280 2682 pd fcpan 0.51;
#X obj 85 2179 s~ white;
#X obj 289 2204 r~ white;
#X obj 79 2223 catch~ l;
#X obj 156 2222 catch~ r;
#X obj 85 2147 noise~;
#X obj 280 2721 throw~ l;
#X obj 370 2721 throw~ r;
#X obj 391 2061 vd~ a 0;
#X obj 388 2095 lop~ 0.2;
#X obj 373 2199 sig~ 1;
#X obj 372 2234 -~;
#X obj 291 2269 max~;
#X obj 290 2301 -~;
#X obj 289 2333 *~;
#X obj 291 2370 hip~ 200;
#X obj 294 2411 lop~ 4000;
#X obj 291 2456 *~;
#X obj 289 2521 *~ 1.4;
#X obj 387 2127 *~ 0.4;
#X obj 386 2159 +~ 0.2;
#X floatatom 566 2175 5 0 0 0 - - -;
#X obj 572 2096 r loadbang;
#X obj 595 2270 *~ 1;
#X obj 532 2269 *~ 0.8;
#X obj 574 2141 random 5;
#X obj 563 2223 select 0 1 2 3 4 5;
#X obj 655 2272 *~ 1.2;
#X obj 720 2270 *~ 0;
#X obj 793 2271 *~ 0;
#X text 322 2034 Based on Ch41 from Designing Sound;
#X obj 607 2454 vsl 15 128 0.5 3 0 0 empty empty empty 0 -9 0 10 -262144
-1 -1 0 1;
#X floatatom 396 2594 5 0 0 0 - - -;
#X obj 297 2609 /~ 1;
#X msg 607 2634 1000;
#X msg 605 2605 1;
#X text 643 2604 Click to reset to default volume;
#X text 648 2634 Click to mute;
#X text 658 2506 Volume control;
#X obj 780 2556 r oscwind;
#X obj 782 2638 r oscwindstop;
#N canvas 0 50 1012 675 windspeed 0;
#X obj 62 28 osc~ 0.1;
#X obj 64 73 +~ 1;
#X obj 68 109 *~ 0.25;
#N canvas 1204 299 1001 749 gust 0;
#X obj 82 56 noise~;
#X obj 83 86 lop~ 0.5;
#X obj 83 123 lop~ 0.5;
#X obj 84 158 hip~ 0;
#X obj 85 194 *~ 50;
#X obj 88 234 *~;
#X obj 88 271 outlet~;
#X obj 175 58 inlet~;
#X obj 176 87 +~ 0.5;
#X obj 176 124 *~;
#X obj 177 159 -~ 0.125;
#X connect 0 0 1 0;
#X connect 1 0 2 0;
#X connect 2 0 3 0;
#X connect 3 0 4 0;
#X connect 4 0 5 0;
#X connect 5 0 6 0;
#X connect 7 0 8 0;
#X connect 8 0 9 0;
#X connect 9 0 10 0;
#X connect 10 0 5 1;
#X restore 132 146 pd gust;
#N canvas 816 619 1003 849 squall 0;
#X obj 86 36 inlet~;
#X obj 83 70 max~ 0.4;
#X obj 92 147 *~ 8;
#X obj 89 107 -~ 0.4;
#X obj 93 184 *~;
#X obj 182 64 noise~;
#X obj 193 101 lop~ 3;
#X obj 192 140 lop~ 3;
#X obj 187 178 hip~ 0;
#X obj 180 217 *~ 20;
#X obj 138 261 *~;
#X obj 139 301 outlet~;
#X connect 0 0 1 0;
#X connect 1 0 3 0;
#X connect 2 0 4 0;
#X connect 3 0 2 0;
#X connect 4 0 10 0;
#X connect 5 0 6 0;
#X connect 6 0 7 0;
#X connect 7 0 8 0;
#X connect 8 0 9 0;
#X connect 9 0 10 1;
#X connect 10 0 11 0;
#X restore 213 148 pd squall;
#X obj 131 196 +~;
#X obj 68 224 +~;
#X obj 71 258 clip~ 0 1;
#X obj 72 302 outlet~;
#X connect 0 0 1 0;
#X connect 1 0 2 0;
#X connect 2 0 6 0;
#X connect 2 0 3 0;
#X connect 2 0 4 0;
#X connect 3 0 5 0;
#X connect 4 0 5 1;
#X connect 5 0 6 1;
#X connect 6 0 7 0;
#X connect 7 0 8 0;
#X restore 1119 2368 pd windspeed;
#X obj 1121 2401 delwrite~ a 3000;
#X obj 1108 2167 s~ white;
#X obj 1381 2402 r~ white;
#X obj 1108 2135 noise~;
#X obj 1385 2796 throw~ l;
#X obj 1475 2796 throw~ r;
#X obj 1534 2119 clip~ 0.35 0.6;
#X obj 1533 2151 -~ 0.35;
#X obj 1532 2183 *~ 2;
#X obj 1529 2227 -~ 0.25;
#X obj 1529 2266 cos~;
#X obj 1524 2303 lop~ 0.5;
#X obj 1530 2346 *~ 200;
#X obj 1528 2390 +~ 30;
#X obj 1528 2431 osc~;
#X obj 1387 2454 bp~ 400 40;
#X obj 1383 2504 *~;
#X obj 1382 2548 *~ 2;
#X obj 1381 2593 *~;
#X obj 1623 2417 r~ white;
#X obj 1623 2743 throw~ l;
#X obj 1713 2743 throw~ r;
#X obj 1771 2242 -~ 0.25;
#X obj 1771 2281 cos~;
#X obj 1770 2446 osc~;
#X obj 1625 2519 *~;
#X obj 1624 2563 *~ 2;
#X obj 1623 2608 *~;
#X obj 1537 2085 vd~ a 100;
#X obj 1779 2100 vd~ a 300;
#X obj 1776 2134 clip~ 0.25 0.5;
#X obj 1776 2167 -~ 0.25;
#X obj 1767 2319 lop~ 0.1;
#X obj 1772 2361 *~ 100;
#X obj 1629 2469 bp~ 200 40;
#N canvas 0 50 1604 756 fcpan 0;
#X obj 156 54 inlet~;
#X obj 322 53 sig~ \$1;
#X obj 324 89 *~ 0.25;
#X obj 324 122 -~ 0.25;
#X obj 327 157 cos~;
#X obj 263 243 *~;
#X obj 265 276 outlet~ r;
#X obj 164 279 outlet~ l;
#X obj 162 246 *~;
#X obj 189 162 -~ 0.25;
#X obj 179 205 cos~;
#X connect 0 0 8 0;
#X connect 0 0 5 0;
#X connect 1 0 2 0;
#X connect 2 0 3 0;
#X connect 3 0 4 0;
#X connect 3 0 9 0;
#X connect 4 0 5 1;
#X connect 5 0 6 0;
#X connect 8 0 7 0;
#X connect 9 0 10 0;
#X connect 10 0 8 1;
#X restore 1382 2754 pd fcpan 0.91;
#N canvas 0 50 1604 756 fcpan 0;
#X obj 156 54 inlet~;
#X obj 322 53 sig~ \$1;
#X obj 324 89 *~ 0.25;
#X obj 324 122 -~ 0.25;
#X obj 327 157 cos~;
#X obj 263 243 *~;
#X obj 265 276 outlet~ r;
#X obj 164 279 outlet~ l;
#X obj 162 246 *~;
#X obj 189 162 -~ 0.25;
#X obj 179 205 cos~;
#X connect 0 0 8 0;
#X connect 0 0 5 0;
#X connect 1 0 2 0;
#X connect 2 0 3 0;
#X connect 3 0 4 0;
#X connect 3 0 9 0;
#X connect 4 0 5 1;
#X connect 5 0 6 0;
#X connect 8 0 7 0;
#X connect 9 0 10 0;
#X connect 10 0 8 1;
#X restore 1620 2701 pd fcpan 0.03;
#X obj 1774 2198 *~ 1.8;
#X obj 1770 2405 +~ 19;
#X obj 1077 2488 vsl 15 128 0.5 3 0 0 empty empty empty 0 -9 0 10 -262144
-1 -1 0 1;
#X floatatom 1263 2693 5 0 0 0 - - -;
#X obj 1382 2687 /~ 1;
#X msg 1078 2659 1000;
#X msg 1076 2630 1;
#X text 1114 2629 Click to reset to default volume;
#X text 1119 2659 Click to mute;
#X text 1114 2547 Volume control;
#X obj 1929 2494 vsl 15 128 0.5 3 0 0 empty empty empty 0 -9 0 10 -262144
-1 -1 0 1;
#X floatatom 1719 2625 5 0 0 0 - - -;
#X obj 1619 2652 /~ 1;
#X msg 1930 2665 1000;
#X msg 1928 2636 1;
#X text 1966 2635 Click to reset to default volume;
#X text 1926 2690 Click to mute;
#X text 1966 2553 Volume control;
#X obj 2058 2596 r oscwind;
#X obj 2085 2667 r oscwindstop;
#X obj 976 2606 r oscwind;
#X obj 931 2637 r oscwindstop;
#X text 380 2020 Wind Sounds;
#X obj 1729 275 Generative_Ambient;
#X obj 1728 322 throw~ $output;
#X obj 515 268 noise~;
#X obj 513 415 *~;
#X obj 561 358 vline~;
#X msg 561 324 0.1 100 \, 0 100 25;
#X obj 719 302 noise~;
#X obj 720 449 *~;
#X obj 760 400 vline~;
#X obj 974 300 noise~;
#X obj 974 447 *~;
#X obj 1022 397 vline~;
#X obj 1275 297 noise~;
#X obj 1273 444 *~;
#X obj 1315 401 vline~;
#X obj 1003 199 hradio 15 1 0 5 empty empty empty 0 -8 0 10 -262144
-1 -1 0;
#X obj 1003 132 f;
#X obj 1043 133 + 1;
#X obj 997 229 select 0 1 2 3;
#X msg 760 361 0.05 100 \, 0 50 50;
#X obj 1525 263 noise~;
#X obj 1524 410 *~;
#X obj 1566 367 vline~;
#X obj 1003 160 mod 5;
#X msg 1022 357 0.075 50 \, 0 100 50;
#X msg 1316 361 0.05 75 \, 0 100 75;
#X msg 1566 328 0.075 100 \, 0 50 75;
#X obj 1438 333 lop~ 1;
#X obj 1182 364 lop~ 1;
#X obj 656 385 lop~ 1;
#X obj 906 360 lop~ 1;
#X obj 447 337 lop~ 1;
#X obj 1003 51 r oscstep;
#X obj 1003 107 metro 350;
#X obj 1003 79 tgl 15 0 empty empty empty 17 7 0 10 -262144 -1 -1 0
1;
#X text 998 24 Footsteps;
#X obj 1782 362 throw~ $output;
#X obj 1835 399 throw~ $output;
#X obj 1088 71 r osctempo;
#X obj 2096 1297 hradio 15 1 0 12 empty empty empty 0 -8 0 10 -262144
-1 -1 0;
#X obj 2096 1230 f;
#X obj 2136 1231 + 1;
#X obj 2096 1177 tgl 15 0 empty empty empty 17 7 0 10 -262144 -1 -1
0 1;
#X obj 2347 1597 vsl 15 128 0.5 3 0 0 empty empty empty 0 -9 0 10 -262144
-1 -1 0 1;
#X floatatom 2288 1601 5 0 0 0 - - -;
#X obj 2189 1616 /~ 1;
#X text 2417 1684 Volume Control;
#X msg 2348 1768 1000;
#X msg 2346 1739 1;
#X text 2384 1738 Click to reset to default volume;
#X text 2389 1768 Click to mute;
#X msg 2246 1397 5;
#X msg 2088 1399 -10;
#X msg 2149 1399 -5;
#X msg 2292 1398 10;
#X obj 2096 1205 metro 450;
#X obj 2095 1334 select 0 1 2 3 4;
#N canvas 0 0 1613 2177 MIDI 0;
#X floatatom 338 258 5 0 0 0 - - -;
#X obj 338 412 *~;
#X obj 337 227 mtof;
#X obj 335 166 + 0;
#X obj 453 318 vline~;
#X floatatom 453 222 5 0 0 0 - - -;
#X obj 453 169 loadbang;
#X obj 339 316 osc~;
#X floatatom 221 268 5 0 0 0 - - -;
#X msg 453 196 48;
#X msg 453 265 0.5 100 \, 0 500 500;
#X text 80 268 MIDI Debug Output;
#X text 517 203 48 should be note C4;
#X floatatom 338 115 5 0 0 0 - - -;
#X obj 335 67 inlet;
#X obj 338 465 outlet~;
#X connect 0 0 7 0;
#X connect 1 0 15 0;
#X connect 2 0 0 0;
#X connect 3 0 2 0;
#X connect 3 0 8 0;
#X connect 3 0 10 0;
#X connect 4 0 1 1;
#X connect 5 0 3 1;
#X connect 6 0 9 0;
#X connect 7 0 1 0;
#X connect 9 0 5 0;
#X connect 10 0 4 0;
#X connect 13 0 3 0;
#X connect 14 0 13 0;
#X restore 2186 1539 pd MIDI;
#X floatatom 2184 1493 5 0 0 0 - - -;
#X floatatom 1934 1495 5 0 0 0 - - -;
#X msg 1880 1404 -3;
#X msg 1963 1404 3;
#X msg 2007 1403 8;
#X msg 1921 1405 -1;
#X msg 2201 1399 1;
#X msg 2785 1393 5;
#X msg 2627 1395 -10;
#X msg 2688 1395 -5;
#X msg 2831 1394 10;
#X floatatom 2723 1489 5 0 0 0 - - -;
#X floatatom 2473 1491 5 0 0 0 - - -;
#X msg 2380 1400 -8;
#X msg 2419 1400 -3;
#X msg 2502 1400 3;
#X msg 2546 1399 8;
#X msg 2460 1401 -1;
#X msg 2740 1395 1;
#X obj 2634 1330 select 6 7 8 9 10;
#X obj 2096 1258 mod 12;
#X obj 2189 1664 throw~ $output;
#X obj 2000 1176 r oscallitems;
#X obj 1836 1230 s oscallitems;
#X obj 1429 1167 select 44 45 46 47 48 49 50 51 52 53 54 55 56 57 58
59 60 61 62 63 64 65 66 67 68 69 70 71 72;
#X connect 6 0 10 0;
#X connect 8 0 9 0;
#X connect 10 0 13 0;
#X connect 11 0 10 0;
#X connect 14 0 268 0;
#X connect 16 0 15 0;
#X connect 17 0 20 0;
#X connect 18 0 14 0;
#X connect 18 0 20 0;
#X connect 20 0 15 0;
#X connect 23 0 30 0;
#X connect 24 0 30 1;
#X connect 27 0 24 0;
#X connect 28 0 29 0;
#X connect 29 0 31 1;
#X connect 30 0 22 0;
#X connect 30 0 22 1;
#X connect 31 0 26 0;
#X connect 34 0 41 0;
#X connect 35 0 132 0;
#X connect 36 0 34 0;
#X connect 37 0 36 0;
#X connect 37 0 48 0;
#X connect 37 0 58 0;
#X connect 38 0 35 1;
#X connect 39 0 37 1;
#X connect 40 0 49 0;
#X connect 41 0 35 0;
#X connect 42 0 45 0;
#X connect 43 0 42 0;
#X connect 43 0 95 0;
#X connect 43 0 93 0;
#X connect 43 0 60 0;
#X connect 44 0 42 1;
#X connect 45 0 46 0;
#X connect 45 0 120 0;
#X connect 45 0 350 0;
#X connect 46 0 45 1;
#X connect 47 0 44 0;
#X connect 49 0 39 0;
#X connect 50 0 37 0;
#X connect 51 0 37 0;
#X connect 52 0 37 0;
#X connect 53 0 37 0;
#X connect 54 0 37 0;
#X connect 55 0 37 0;
#X connect 56 0 37 0;
#X connect 57 0 37 0;
#X connect 58 0 38 0;
#X connect 59 0 93 0;
#X connect 59 0 60 0;
#X connect 60 0 45 0;
#X connect 61 0 65 0;
#X connect 62 0 66 0;
#X connect 63 0 67 0;
#X connect 64 0 68 0;
#X connect 65 0 37 0;
#X connect 66 0 37 0;
#X connect 67 0 37 0;
#X connect 68 0 37 0;
#X connect 69 0 37 0;
#X connect 70 0 37 0;
#X connect 71 0 37 0;
#X connect 72 0 37 0;
#X connect 73 0 37 0;
#X connect 74 0 37 0;
#X connect 75 0 37 0;
#X connect 76 0 37 0;
#X connect 77 0 69 0;
#X connect 78 0 71 0;
#X connect 79 0 72 0;
#X connect 80 0 70 0;
#X connect 81 0 73 0;
#X connect 82 0 74 0;
#X connect 83 0 75 0;
#X connect 84 0 76 0;
#X connect 85 0 37 0;
#X connect 86 0 37 0;
#X connect 87 0 37 0;
#X connect 88 0 37 0;
#X connect 89 0 85 0;
#X connect 90 0 86 0;
#X connect 91 0 87 0;
#X connect 92 0 88 0;
#X connect 93 0 94 0;
#X connect 94 0 44 0;
#X connect 94 0 121 0;
#X connect 95 0 94 0;
#X connect 96 0 37 0;
#X connect 97 0 37 0;
#X connect 98 0 37 0;
#X connect 99 0 37 0;
#X connect 100 0 37 0;
#X connect 101 0 37 0;
#X connect 102 0 37 0;
#X connect 103 0 37 0;
#X connect 104 0 37 0;
#X connect 105 0 37 0;
#X connect 106 0 37 0;
#X connect 107 0 37 0;
#X connect 108 0 96 0;
#X connect 109 0 97 0;
#X connect 110 0 98 0;
#X connect 111 0 99 0;
#X connect 112 0 100 0;
#X connect 113 0 101 0;
#X connect 114 0 102 0;
#X connect 115 0 103 0;
#X connect 116 0 104 0;
#X connect 117 0 105 0;
#X connect 118 0 106 0;
#X connect 119 0 107 0;
#X connect 120 0 61 0;
#X connect 120 1 62 0;
#X connect 120 2 63 0;
#X connect 120 3 64 0;
#X connect 120 4 61 0;
#X connect 120 5 62 0;
#X connect 120 6 63 0;
#X connect 120 7 64 0;
#X connect 120 8 77 0;
#X connect 120 9 80 0;
#X connect 120 10 78 0;
#X connect 120 11 79 0;
#X connect 120 12 77 0;
#X connect 120 13 80 0;
#X connect 120 14 78 0;
#X connect 120 15 79 0;
#X connect 120 16 81 0;
#X connect 120 17 82 0;
#X connect 120 18 83 0;
#X connect 120 19 84 0;
#X connect 120 20 81 0;
#X connect 120 21 82 0;
#X connect 120 22 83 0;
#X connect 120 23 84 0;
#X connect 120 24 89 0;
#X connect 120 25 90 0;
#X connect 120 26 91 0;
#X connect 120 27 92 0;
#X connect 120 28 89 0;
#X connect 120 29 90 0;
#X connect 120 30 91 0;
#X connect 120 31 92 0;
#X connect 120 32 108 0;
#X connect 120 33 109 0;
#X connect 120 34 110 0;
#X connect 120 35 111 0;
#X connect 120 36 112 0;
#X connect 120 37 113 0;
#X connect 120 38 114 0;
#X connect 120 39 115 0;
#X connect 120 40 116 0;
#X connect 120 41 117 0;
#X connect 120 42 118 0;
#X connect 120 43 119 0;
#X connect 121 0 94 1;
#X connect 130 0 131 0;
#X connect 131 0 132 1;
#X connect 132 0 138 0;
#X connect 134 0 131 0;
#X connect 135 0 131 0;
#X connect 139 0 60 0;
#X connect 139 0 93 0;
#X connect 139 0 42 0;
#X connect 139 0 95 0;
#X connect 144 0 145 0;
#X connect 145 0 146 1;
#X connect 146 0 143 0;
#X connect 149 0 150 0;
#X connect 150 0 152 1;
#X connect 152 0 148 0;
#X connect 153 0 154 0;
#X connect 154 0 152 0;
#X connect 155 1 154 0;
#X connect 158 0 160 0;
#X connect 159 0 153 0;
#X connect 160 0 161 0;
#X connect 161 0 146 0;
#X connect 162 1 161 0;
#X connect 164 0 165 0;
#X connect 166 0 172 0;
#X connect 166 1 173 0;
#X connect 168 0 178 0;
#X connect 171 0 167 0;
#X connect 174 0 175 0;
#X connect 175 0 183 1;
#X connect 175 0 185 0;
#X connect 175 0 189 0;
#X connect 175 0 190 0;
#X connect 175 0 193 0;
#X connect 175 0 194 0;
#X connect 175 0 195 0;
#X connect 176 0 177 0;
#X connect 177 0 178 1;
#X connect 177 0 179 1;
#X connect 177 0 180 1;
#X connect 178 0 179 0;
#X connect 179 0 180 0;
#X connect 180 0 181 0;
#X connect 181 0 182 0;
#X connect 182 0 183 0;
#X connect 183 0 184 0;
#X connect 184 0 199 0;
#X connect 185 0 186 0;
#X connect 186 0 177 1;
#X connect 187 0 192 0;
#X connect 188 0 191 0;
#X connect 189 0 186 0;
#X connect 190 0 186 0;
#X connect 191 0 187 0;
#X connect 192 0 190 0;
#X connect 192 1 189 0;
#X connect 192 2 193 0;
#X connect 192 3 194 0;
#X connect 192 4 195 0;
#X connect 193 0 186 0;
#X connect 194 0 186 0;
#X connect 195 0 186 0;
#X connect 197 0 198 0;
#X connect 198 0 199 1;
#X connect 199 0 166 0;
#X connect 200 0 198 0;
#X connect 201 0 198 0;
#X connect 205 0 201 0;
#X connect 206 0 200 0;
#X connect 207 0 208 0;
#X connect 210 0 223 0;
#X connect 211 0 209 0;
#X connect 214 0 215 0;
#X connect 215 0 216 0;
#X connect 216 0 217 0;
#X connect 217 0 218 0;
#X connect 218 0 219 0;
#X connect 219 0 220 0;
#X connect 219 0 224 1;
#X connect 220 0 221 0;
#X connect 221 0 222 0;
#X connect 222 0 226 1;
#X connect 223 0 224 0;
#X connect 224 0 225 0;
#X connect 225 0 226 0;
#X connect 226 0 249 0;
#X connect 227 0 242 0;
#X connect 230 0 231 0;
#X connect 231 0 240 0;
#X connect 232 0 235 1;
#X connect 233 0 234 0;
#X connect 234 0 235 0;
#X connect 235 0 257 0;
#X connect 236 0 214 0;
#X connect 237 0 238 0;
#X connect 238 0 239 0;
#X connect 239 0 245 0;
#X connect 240 0 233 1;
#X connect 240 0 241 0;
#X connect 241 0 246 0;
#X connect 242 0 233 0;
#X connect 243 0 212 0;
#X connect 243 1 213 0;
#X connect 244 0 228 0;
#X connect 244 1 229 0;
#X connect 245 0 230 0;
#X connect 246 0 232 0;
#X connect 247 0 248 0;
#X connect 248 0 249 1;
#X connect 249 0 243 0;
#X connect 250 0 248 0;
#X connect 251 0 248 0;
#X connect 255 0 256 0;
#X connect 256 0 257 1;
#X connect 257 0 244 0;
#X connect 258 0 256 0;
#X connect 259 0 256 0;
#X connect 263 0 259 0;
#X connect 264 0 258 0;
#X connect 265 0 251 0;
#X connect 266 0 250 0;
#X connect 268 0 269 0;
#X connect 268 1 304 0;
#X connect 268 2 305 0;
#X connect 270 0 271 0;
#X connect 270 0 299 0;
#X connect 271 0 31 0;
#X connect 272 0 271 1;
#X connect 273 0 272 0;
#X connect 274 0 275 0;
#X connect 274 0 297 0;
#X connect 275 0 31 0;
#X connect 276 0 275 1;
#X connect 277 0 278 0;
#X connect 277 0 298 0;
#X connect 278 0 31 0;
#X connect 279 0 278 1;
#X connect 280 0 281 0;
#X connect 280 0 296 0;
#X connect 281 0 31 0;
#X connect 282 0 281 1;
#X connect 283 0 286 0;
#X connect 284 0 285 0;
#X connect 284 0 291 0;
#X connect 285 0 284 1;
#X connect 286 0 273 0;
#X connect 286 1 287 0;
#X connect 286 2 292 0;
#X connect 286 3 293 0;
#X connect 286 4 294 0;
#X connect 287 0 276 0;
#X connect 288 0 289 0;
#X connect 288 0 295 0;
#X connect 289 0 31 0;
#X connect 290 0 289 1;
#X connect 291 0 283 0;
#X connect 292 0 279 0;
#X connect 293 0 282 0;
#X connect 294 0 290 0;
#X connect 295 0 289 0;
#X connect 296 0 281 0;
#X connect 297 0 275 0;
#X connect 298 0 278 0;
#X connect 299 0 271 0;
#X connect 300 0 302 0;
#X connect 301 0 284 0;
#X connect 302 0 301 0;
#X connect 307 0 324 0;
#X connect 307 0 345 0;
#X connect 308 0 309 0;
#X connect 308 0 346 0;
#X connect 309 0 308 1;
#X connect 310 0 323 0;
#X connect 311 0 312 0;
#X connect 312 0 313 1;
#X connect 313 0 347 0;
#X connect 315 0 312 0;
#X connect 316 0 312 0;
#X connect 319 0 326 0;
#X connect 320 0 326 0;
#X connect 321 0 326 0;
#X connect 322 0 326 0;
#X connect 323 0 308 0;
#X connect 324 0 320 0;
#X connect 324 1 321 0;
#X connect 324 1 328 0;
#X connect 324 2 332 0;
#X connect 324 2 331 0;
#X connect 324 3 319 0;
#X connect 324 3 329 0;
#X connect 324 4 322 0;
#X connect 324 4 330 0;
#X connect 325 0 313 0;
#X connect 326 0 325 0;
#X connect 327 0 325 0;
#X connect 328 0 327 0;
#X connect 329 0 327 0;
#X connect 330 0 327 0;
#X connect 331 0 327 0;
#X connect 332 0 326 0;
#X connect 333 0 337 0;
#X connect 334 0 337 0;
#X connect 335 0 337 0;
#X connect 336 0 337 0;
#X connect 337 0 325 0;
#X connect 338 0 325 0;
#X connect 339 0 338 0;
#X connect 340 0 338 0;
#X connect 341 0 338 0;
#X connect 342 0 338 0;
#X connect 343 0 338 0;
#X connect 344 0 337 0;
#X connect 345 0 334 0;
#X connect 345 0 339 0;
#X connect 345 1 335 0;
#X connect 345 1 340 0;
#X connect 345 2 344 0;
#X connect 345 2 343 0;
#X connect 345 3 333 0;
#X connect 345 3 341 0;
#X connect 345 4 336 0;
#X connect 345 4 342 0;
#X connect 346 0 307 0;
#X connect 348 0 323 0;
#X connect 350 0 54 0;
#X connect 350 0 52 0;
#X connect 350 1 54 0;
#X connect 350 1 52 0;
#X connect 350 2 54 0;
#X connect 350 2 52 0;
#X connect 350 3 54 0;
#X connect 350 3 52 0;
#X connect 350 4 55 0;
#X connect 350 4 53 0;
#X connect 350 5 55 0;
#X connect 350 5 53 0;
#X connect 350 6 55 0;
#X connect 350 6 53 0;
#X connect 350 7 55 0;
#X connect 350 7 53 0;
#X connect 350 8 56 0;
#X connect 350 8 51 0;
#X connect 350 9 56 0;
#X connect 350 9 51 0;
#X connect 350 10 56 0;
#X connect 350 10 51 0;
#X connect 350 11 56 0;
#X connect 350 11 51 0;
#X connect 350 12 57 0;
#X connect 350 12 50 0;
#X connect 350 13 57 0;
#X connect 350 13 50 0;
#X connect 350 14 57 0;
#X connect 350 14 50 0;
#X connect 350 15 57 0;
#X connect 350 15 50 0;
#X connect 350 16 57 0;
#X connect 350 16 50 0;
#X connect 350 17 57 0;
#X connect 350 17 50 0;
#X connect 350 18 57 0;
#X connect 350 18 50 0;
#X connect 350 19 57 0;
#X connect 350 19 50 0;
#X connect 350 28 349 0;
