#N canvas 331 464 1771 1113 12;
#X obj 64 221 dac~;
#N canvas 0 50 1012 675 windspeed 0;
#X obj 62 28 osc~ 0.1;
#X obj 64 73 +~ 1;
#X obj 68 109 *~ 0.25;
#N canvas 1204 299 1001 749 gust 0;
#X obj 82 56 noise~;
#X obj 83 86 lop~ 0.5;
#X obj 83 123 lop~ 0.5;
#X obj 84 158 hip~ 0;
#X obj 85 194 *~ 50;
#X obj 88 234 *~;
#X obj 88 271 outlet~;
#X obj 175 58 inlet~;
#X obj 176 87 +~ 0.5;
#X obj 176 124 *~;
#X obj 177 159 -~ 0.125;
#X connect 0 0 1 0;
#X connect 1 0 2 0;
#X connect 2 0 3 0;
#X connect 3 0 4 0;
#X connect 4 0 5 0;
#X connect 5 0 6 0;
#X connect 7 0 8 0;
#X connect 8 0 9 0;
#X connect 9 0 10 0;
#X connect 10 0 5 1;
#X restore 132 146 pd gust;
#N canvas 816 619 1003 849 squall 0;
#X obj 86 36 inlet~;
#X obj 83 70 max~ 0.4;
#X obj 92 147 *~ 8;
#X obj 89 107 -~ 0.4;
#X obj 93 184 *~;
#X obj 182 64 noise~;
#X obj 193 101 lop~ 3;
#X obj 192 140 lop~ 3;
#X obj 187 178 hip~ 0;
#X obj 180 217 *~ 20;
#X obj 138 261 *~;
#X obj 139 301 outlet~;
#X connect 0 0 1 0;
#X connect 1 0 3 0;
#X connect 2 0 4 0;
#X connect 3 0 2 0;
#X connect 4 0 10 0;
#X connect 5 0 6 0;
#X connect 6 0 7 0;
#X connect 7 0 8 0;
#X connect 8 0 9 0;
#X connect 9 0 10 1;
#X connect 10 0 11 0;
#X restore 213 148 pd squall;
#X obj 131 196 +~;
#X obj 68 224 +~;
#X obj 71 258 clip~ 0 1;
#X obj 72 302 outlet~;
#X connect 0 0 1 0;
#X connect 1 0 2 0;
#X connect 2 0 6 0;
#X connect 2 0 3 0;
#X connect 2 0 4 0;
#X connect 3 0 5 0;
#X connect 4 0 5 1;
#X connect 5 0 6 1;
#X connect 6 0 7 0;
#X connect 7 0 8 0;
#X restore 82 310 pd windspeed;
#X obj 84 343 delwrite~ a 3000;
#X msg 59 20 \; pd dsp 1;
#X msg 139 20 \; pd dsp 0;
#X obj 71 109 s~ white;
#X obj 344 344 r~ white;
#X obj 65 153 catch~ l;
#X obj 142 152 catch~ r;
#X obj 71 77 noise~;
#X obj 348 738 throw~ l;
#X obj 438 738 throw~ r;
#X obj 497 61 clip~ 0.35 0.6;
#X obj 496 93 -~ 0.35;
#X obj 495 125 *~ 2;
#X obj 492 169 -~ 0.25;
#X obj 492 208 cos~;
#X obj 487 245 lop~ 0.5;
#X obj 493 288 *~ 200;
#X obj 491 332 +~ 30;
#X obj 491 373 osc~;
#X obj 350 396 bp~ 400 40;
#X obj 346 446 *~;
#X obj 345 490 *~ 2;
#X obj 344 535 *~;
#X obj 586 359 r~ white;
#X obj 586 685 throw~ l;
#X obj 676 685 throw~ r;
#X obj 734 184 -~ 0.25;
#X obj 734 223 cos~;
#X obj 733 388 osc~;
#X obj 588 461 *~;
#X obj 587 505 *~ 2;
#X obj 586 550 *~;
#X obj 500 27 vd~ a 100;
#X obj 742 42 vd~ a 300;
#X obj 739 76 clip~ 0.25 0.5;
#X obj 739 109 -~ 0.25;
#X obj 730 261 lop~ 0.1;
#X obj 735 303 *~ 100;
#X obj 592 411 bp~ 200 40;
#N canvas 0 50 1604 756 fcpan 0;
#X obj 156 54 inlet~;
#X obj 322 53 sig~ \$1;
#X obj 324 89 *~ 0.25;
#X obj 324 122 -~ 0.25;
#X obj 327 157 cos~;
#X obj 263 243 *~;
#X obj 265 276 outlet~ r;
#X obj 164 279 outlet~ l;
#X obj 162 246 *~;
#X obj 189 162 -~ 0.25;
#X obj 179 205 cos~;
#X connect 0 0 8 0;
#X connect 0 0 5 0;
#X connect 1 0 2 0;
#X connect 2 0 3 0;
#X connect 3 0 4 0;
#X connect 3 0 9 0;
#X connect 4 0 5 1;
#X connect 5 0 6 0;
#X connect 8 0 7 0;
#X connect 9 0 10 0;
#X connect 10 0 8 1;
#X restore 345 696 pd fcpan 0.91;
#N canvas 0 50 1604 756 fcpan 0;
#X obj 156 54 inlet~;
#X obj 322 53 sig~ \$1;
#X obj 324 89 *~ 0.25;
#X obj 324 122 -~ 0.25;
#X obj 327 157 cos~;
#X obj 263 243 *~;
#X obj 265 276 outlet~ r;
#X obj 164 279 outlet~ l;
#X obj 162 246 *~;
#X obj 189 162 -~ 0.25;
#X obj 179 205 cos~;
#X connect 0 0 8 0;
#X connect 0 0 5 0;
#X connect 1 0 2 0;
#X connect 2 0 3 0;
#X connect 3 0 4 0;
#X connect 3 0 9 0;
#X connect 4 0 5 1;
#X connect 5 0 6 0;
#X connect 8 0 7 0;
#X connect 9 0 10 0;
#X connect 10 0 8 1;
#X restore 583 643 pd fcpan 0.03;
#X text 226 68 Based on Ch41 from Designing Sound;
#X obj 737 140 *~ 1.8;
#X obj 733 347 +~ 19;
#X obj 175 -273 tgl 15 0 empty empty empty 17 7 0 10 -262144 -1 -1
0 1;
#X obj 40 430 vsl 15 128 0.5 3 0 0 empty empty empty 0 -9 0 10 -262144
-1 -1 0 1;
#X floatatom 226 635 5 0 0 0 - - -;
#X obj 345 629 /~ 1;
#X msg 41 601 1000;
#X msg 39 572 1;
#X text 77 571 Click to reset to default volume;
#X text 82 601 Click to mute;
#X text 77 489 Volume control;
#X obj 892 436 vsl 15 128 0.5 3 0 0 empty empty empty 0 -9 0 10 -262144
-1 -1 0 1;
#X floatatom 682 567 5 0 0 0 - - -;
#X obj 582 594 /~ 1;
#X msg 893 607 1000;
#X msg 891 578 1;
#X text 929 577 Click to reset to default volume;
#X text 934 607 Click to mute;
#X text 929 495 Volume control;
#X connect 1 0 2 0;
#X connect 6 0 21 0;
#X connect 7 0 0 0;
#X connect 8 0 0 1;
#X connect 9 0 5 0;
#X connect 12 0 13 0;
#X connect 13 0 14 0;
#X connect 14 0 15 0;
#X connect 15 0 16 0;
#X connect 16 0 17 0;
#X connect 17 0 18 0;
#X connect 17 0 22 1;
#X connect 18 0 19 0;
#X connect 19 0 20 0;
#X connect 20 0 24 1;
#X connect 21 0 22 0;
#X connect 22 0 23 0;
#X connect 23 0 24 0;
#X connect 24 0 49 0;
#X connect 25 0 40 0;
#X connect 28 0 29 0;
#X connect 29 0 38 0;
#X connect 30 0 33 1;
#X connect 31 0 32 0;
#X connect 32 0 33 0;
#X connect 33 0 57 0;
#X connect 34 0 12 0;
#X connect 35 0 36 0;
#X connect 36 0 37 0;
#X connect 37 0 44 0;
#X connect 38 0 31 1;
#X connect 38 0 39 0;
#X connect 39 0 45 0;
#X connect 40 0 31 0;
#X connect 41 0 10 0;
#X connect 41 1 11 0;
#X connect 42 0 26 0;
#X connect 42 1 27 0;
#X connect 44 0 28 0;
#X connect 45 0 30 0;
#X connect 47 0 48 0;
#X connect 48 0 49 1;
#X connect 49 0 41 0;
#X connect 50 0 48 0;
#X connect 51 0 48 0;
#X connect 55 0 56 0;
#X connect 56 0 57 1;
#X connect 57 0 42 0;
#X connect 58 0 56 0;
#X connect 59 0 56 0;
