#N canvas 567 772 1943 1262 12;
#X obj 64 221 dac~;
#N canvas 0 50 1012 675 windspeed 0;
#X obj 62 28 osc~ 0.1;
#X obj 64 73 +~ 1;
#X obj 68 109 *~ 0.25;
#N canvas 1204 299 1001 749 gust 0;
#X obj 82 56 noise~;
#X obj 83 86 lop~ 0.5;
#X obj 83 123 lop~ 0.5;
#X obj 84 158 hip~ 0;
#X obj 85 194 *~ 50;
#X obj 88 234 *~;
#X obj 88 271 outlet~;
#X obj 175 58 inlet~;
#X obj 176 87 +~ 0.5;
#X obj 176 124 *~;
#X obj 177 159 -~ 0.125;
#X connect 0 0 1 0;
#X connect 1 0 2 0;
#X connect 2 0 3 0;
#X connect 3 0 4 0;
#X connect 4 0 5 0;
#X connect 5 0 6 0;
#X connect 7 0 8 0;
#X connect 8 0 9 0;
#X connect 9 0 10 0;
#X connect 10 0 5 1;
#X restore 132 146 pd gust;
#N canvas 816 619 1003 849 squall 0;
#X obj 86 36 inlet~;
#X obj 83 70 max~ 0.4;
#X obj 92 147 *~ 8;
#X obj 89 107 -~ 0.4;
#X obj 93 184 *~;
#X obj 182 64 noise~;
#X obj 193 101 lop~ 3;
#X obj 192 140 lop~ 3;
#X obj 187 178 hip~ 0;
#X obj 180 217 *~ 20;
#X obj 138 261 *~;
#X obj 139 301 outlet~;
#X connect 0 0 1 0;
#X connect 1 0 3 0;
#X connect 2 0 4 0;
#X connect 3 0 2 0;
#X connect 4 0 10 0;
#X connect 5 0 6 0;
#X connect 6 0 7 0;
#X connect 7 0 8 0;
#X connect 8 0 9 0;
#X connect 9 0 10 1;
#X connect 10 0 11 0;
#X restore 213 148 pd squall;
#X obj 131 196 +~;
#X obj 68 224 +~;
#X obj 71 258 clip~ 0 1;
#X obj 72 302 outlet~;
#X connect 0 0 1 0;
#X connect 1 0 2 0;
#X connect 2 0 6 0;
#X connect 2 0 3 0;
#X connect 2 0 4 0;
#X connect 3 0 5 0;
#X connect 4 0 5 1;
#X connect 5 0 6 1;
#X connect 6 0 7 0;
#X connect 7 0 8 0;
#X restore 82 310 pd windspeed;
#X obj 84 343 delwrite~ a 3000;
#X msg 59 20 \; pd dsp 1;
#X msg 139 20 \; pd dsp 0;
#N canvas 0 50 1604 756 fcpan 0;
#X obj 156 54 inlet~;
#X obj 322 53 sig~ \$1;
#X obj 324 89 *~ 0.25;
#X obj 324 122 -~ 0.25;
#X obj 327 157 cos~;
#X obj 263 243 *~;
#X obj 265 276 outlet~ r;
#X obj 164 279 outlet~ l;
#X obj 162 246 *~;
#X obj 189 162 -~ 0.25;
#X obj 179 205 cos~;
#X connect 0 0 8 0;
#X connect 0 0 5 0;
#X connect 1 0 2 0;
#X connect 2 0 3 0;
#X connect 3 0 4 0;
#X connect 3 0 9 0;
#X connect 4 0 5 1;
#X connect 5 0 6 0;
#X connect 8 0 7 0;
#X connect 9 0 10 0;
#X connect 10 0 8 1;
#X restore 266 612 pd fcpan 0.51;
#X obj 71 109 s~ white;
#X obj 275 134 r~ white;
#X obj 65 153 catch~ l;
#X obj 142 152 catch~ r;
#X obj 71 77 noise~;
#X obj 266 651 throw~ l;
#X obj 356 651 throw~ r;
#X obj 377 -9 vd~ a 0;
#X obj 374 25 lop~ 0.2;
#X obj 359 129 sig~ 1;
#X obj 358 164 -~;
#X obj 277 199 max~;
#X obj 276 231 -~;
#X obj 275 263 *~;
#X obj 277 300 hip~ 200;
#X obj 280 341 lop~ 4000;
#X obj 277 386 *~;
#X obj 275 451 *~ 1.4;
#X obj 373 57 *~ 0.4;
#X obj 372 89 +~ 0.2;
#X floatatom 552 105 5 0 0 0 - - -;
#X obj 558 26 r loadbang;
#X obj 581 200 *~ 1;
#X obj 518 199 *~ 0.8;
#X obj 560 71 random 5;
#X obj 549 153 select 0 1 2 3 4 5;
#X obj 641 202 *~ 1.2;
#X obj 706 200 *~ 0;
#X obj 779 201 *~ 0;
#X text 699 47 Based on Ch41 from Designing Sound;
#X obj 593 384 vsl 15 128 0.5 3 0 0 empty empty empty 0 -9 0 10 -262144
-1 -1 5000 1;
#X floatatom 382 524 5 0 0 0 - - -;
#X obj 283 539 /~ 1;
#X msg 593 564 1000;
#X msg 591 535 1;
#X text 629 534 Click to reset to default volume;
#X text 634 564 Click to mute;
#X text 644 436 Volume control;
#X connect 1 0 2 0;
#X connect 5 0 11 0;
#X connect 5 1 12 0;
#X connect 7 0 17 0;
#X connect 8 0 0 0;
#X connect 9 0 0 1;
#X connect 10 0 6 0;
#X connect 13 0 14 0;
#X connect 14 0 22 1;
#X connect 14 0 24 0;
#X connect 14 0 28 0;
#X connect 14 0 29 0;
#X connect 14 0 32 0;
#X connect 14 0 33 0;
#X connect 14 0 34 0;
#X connect 15 0 16 0;
#X connect 16 0 17 1;
#X connect 16 0 18 1;
#X connect 16 0 19 1;
#X connect 17 0 18 0;
#X connect 18 0 19 0;
#X connect 19 0 20 0;
#X connect 20 0 21 0;
#X connect 21 0 22 0;
#X connect 22 0 23 0;
#X connect 23 0 38 0;
#X connect 24 0 25 0;
#X connect 25 0 16 1;
#X connect 26 0 31 0;
#X connect 27 0 30 0;
#X connect 28 0 25 0;
#X connect 29 0 25 0;
#X connect 30 0 26 0;
#X connect 31 0 29 0;
#X connect 31 1 28 0;
#X connect 31 2 32 0;
#X connect 31 3 33 0;
#X connect 31 4 34 0;
#X connect 32 0 25 0;
#X connect 33 0 25 0;
#X connect 34 0 25 0;
#X connect 36 0 37 0;
#X connect 37 0 38 1;
#X connect 38 0 5 0;
#X connect 39 0 37 0;
#X connect 40 0 37 0;
